<?xml version="1.0" encoding="UTF-8"?>
<svg id="Layer_1" data-name="Layer 1" xmlns="http://www.w3.org/2000/svg" viewBox="0 0 760.8 365.39">
  <defs>
    <style>
      .cls-1 {
        fill: none;
      }

      .cls-2 {
        fill: #e0b87a;
      }
    </style>
  </defs>
  <path class="cls-1" d="M1152.99-623.53V400.47H-383.01v-1024h1536ZM742.99-595.54c-20.8-14.74-50.48-17.19-75.49-15.98-82.36,4.01-200.13,51.43-252.45,116.79-39.63,49.5-55.16,114.31-51.05,177.19,1.74.23.94-2.27.99-3.48.33-7.96-.47-16.05.01-24,1.11-18.04,5.95-40.3,11.46-57.54,30.58-95.68,109.45-143.79,199.75-175.25,43.05-15,102.81-33.18,147.99-23.45,6.37,1.37,12.46,4.19,18.78,5.71ZM656.99-559.52c-4.67.35-9.84,3.27-14.01,5.47-43.37,22.85-70.97,64.43-68.97,114.52l13.78-10.71c-1.55-34.96,13.66-66.91,40.2-88.8l29.01-20.48ZM729.99-553.52c-1.67-1.6-13.85,13.48-15.44,15.05-78.2,76.5-167.85,139.03-256.31,202.91l-60.22,39.54c-.03.89,14.17,4.6,15.51,4.56,1.97-.05,6.73-3.1,8.77-4.26,28.66-16.25,60.81-40.59,88.01-59.99,65.05-46.4,127.94-95.93,183.2-153.8l36.48-44.01ZM554.99-547.52c-1.91-.14-3.42,1.54-4.89,2.59-4.54,3.23-10.91,9.03-15.12,12.88-54.72,50.17-101.55,120.2-104.98,196.51l13.01-8.71c6.9-80.11,52.54-151.76,111.98-203.28ZM399.79-320.73c1.36-2.45.8-14.69,1.23-18.28,5.44-45.41,20.74-89.33,42.97-129.03l25-37.49c-44.93,50.49-72.78,120.04-74.98,188,1.02-.78,5.5-2.69,5.78-3.2ZM742.99-431.52c-36.08,15.74-77.08,10.87-114.17,1.49l-9.83,11.49c39.81,9.54,89.67,12.91,124-12.98ZM298.58-341.09c-64.05-58.82-129.09-70.62-215.07-65.43-21.21,1.28-42.57,5.28-61.51,15-.23,1.86,2.04.78,3.04.54,4.23-1.01,8.41-3.2,12.9-4.11,39.64-8.01,136.54-.13,175.02,14.08,52.76,19.48,101.62,60.11,137.54,102.46,1.57-.89-.33-2.26-.89-3.11-12.91-19.81-33.67-43.5-51.03-59.44ZM132.57-371.1c-5.35-4.47-10.83-8.82-16.08-13.42-.75-.16-.64.97-.48,1.48,4.6,14.26,33.83,35.63,46.68,43.33,6.29,3.76,13.37,7.8,20.31,10.18-17.48-13.01-33.71-27.59-50.42-41.57ZM156.58-337.1c-23.1-14.84-46.44-29.51-68.11-46.41-4.03-1.56,2.12,5.93,2.54,6.46,23.16,29.41,70.09,55.29,103.13,72.88,40.4,21.51,82.37,41.2,125.84,55.64l-82.86-39.63c-27.5-15.29-54.12-31.96-80.55-48.94ZM112.64-345.16c-4.86-2.5-16.71-3.07-22.88-4.64-10.59-2.69-22.44-6.22-32.44-10.56-6.31-2.74-12.02-6.52-18.32-9.16,11,10.94,26.14,17.32,40.8,21.69,11.64,3.47,25.24,6.66,37.2,6.8-1.25-.51-3.77-3.84-4.35-4.14ZM682.99-367.52c-26.32,13.51-53.75,25.6-82.96,31.53-30.51,6.19-61.77,5.72-92.52,1.46l-8.51,6.99c63.36,10.27,130.61-5.23,183.99-39.98ZM285.42-289.95c-11.51-13.42-27.35-24.24-43.42-31.57,14.47,10.39,28.22,20.09,38.81,34.68,4.28,5.89,6.4,16.28,15.18,12.82-2.5-6.08-6.37-11.04-10.57-15.93ZM148-270.54c26.76,3.96,56.82,8.12,81.97-3.49,0-.82-5.14-3.37-6.46-3.39-2.73-.05-16.27,4.78-21.29,5.62-17.73,2.95-32.07,1.37-49.69.24-1.08-.07-4.72-.69-4.53,1.03ZM181-234.54c34.9,6.39,74.99,8.09,103.97-15.49-6.97-6.06-9.24-.62-15.31,2.67-24.84,13.44-46.02,15.43-74.21,13.87-3.68-.2-7.51-1.58-11.1-1.91-1.12-.1-3.58-.93-3.36.86ZM633.42-191.95c-23.86-27.2-52.37-38.31-87.4-45.1-44.28-8.58-90.71-6.82-135.02.53-.22,1.8,2.24.96,3.36.86,9.28-.79,18.75-2.52,28.09-2.92,44.36-1.86,111.78,7.19,150.46,29.62,30.26,17.55,53.51,54.81,71.91,84.09,15.86,25.24,31.5,51.63,37.18,81.32,1.87.01,1.03-4.26.88-5.39-4.56-35.44-25.56-78.41-44.47-108.53-7.48-11.91-15.76-23.97-25-34.5ZM322.99-234.52c-9.63-3.04-14.89,5.18-22.69,9.8-3.83,2.27-8.08,3.85-11.95,6.05l-21.35,7.13c16.87-1.3,36.01-6.79,49.9-16.58,1.04-.73,7.56-5.14,6.09-6.4ZM468.58-179.09c-19.46-18.34-47.31-31.86-73.58-36.43,3.16,8.17,15.07,9.31,22.67,12.82,29.77,13.77,54.87,32.06,73.83,59.17,1.5-.78-.29-2.41-.67-3.33-4.83-11.44-13.25-23.75-22.25-32.23ZM610.99-177.51c-45.56-22.66-97.91-23.85-147.99-23.01,6.38,9.29,9.77,6.09,18.45,5.95,44.26-.72,87.42,3.47,129.06,19.03l.48-1.97ZM471.42-91.95c-21.75-28.64-45.2-59.93-50.43-96.57l-4.93,1.05c3.85,48.51,37.95,93.59,77.43,119.96l-22.07-24.44ZM461.42-159.95c-1.04-1.13-1.69-2.59-2.93-3.57l-.48,1.48c18.4,32.18,40.96,63.6,69.51,87.49,8.32,6.96,17.74,14.24,27.47,19.02-35.59-30.8-61.98-69.94-93.58-104.41ZM672.99-55.54l-180.99-107.99c4.99,14.27,19.43,22.25,31.68,29.81,30.25,18.65,65.54,36.29,97.29,52.71,17.13,8.86,34.32,17.77,52.01,25.48ZM631.99-141.51c-24.6-11.35-53.05-12.96-78.99-5,1.05,1.95,5.71,5.48,7.61,5.7,3.31.4,16.47-3.41,21.85-3.76,17.07-1.12,30.06,1.63,46.32,3.77,1.08.14,3.45,1.11,3.21-.72ZM646.99-110.54c-5.56-8.22-26.55.19-32.75,4.71-.91.67-1.77.04-1.24,2.28,9.1,5.58,12.5-.41,20.84-3.64,4.22-1.63,8.65-2.83,13.15-3.36ZM594.35-63.88c-2.6-2.83-6.05-7.13-8.16-10.34-2.49-3.78-6.39-13.92-8.13-15.87-1.57-1.77-5.75-2.17-8.06-2.43,2.17,14.74,14.47,24.41,25.09,33.39l9.9,5.11c-2.69-3.73-7.79-6.76-10.64-9.86ZM167.74-43.28c-27.21,1.52-25.28,44.5,1.76,43.83,3.94-.1,16.64-4.58,15.39-9.37-1.98-7.58-8.13.53-12.45,1.22-23.61,3.79-21.42-33.28.59-27.45,2.92.77,5.43,3.42,7.47,5.51,12.04-7.23-5.84-14.12-12.76-13.73ZM200.99-11.03c-1.75-8.37,1.3-22.46,0-31.5l-7.01,1c1.4,8.97-2.53,28.59,1.59,35.92,6.2,11.02,25.41,5.26,25.41-6.41v-29.5h-8V-10.03c-2.43,3.88-10.99,3.82-12-1ZM258.57-25.1c-1.49-1.5-7.85-5.74-7.52-7.8,3.29-4.89,7.46-2.55,10.44,1.36l4.42-5.34c-8.41-10.04-28.85-2.29-17.71,12.65,3.62,4.86,16.09,10.08,10.14,16.56-6.61,2.22-8.4-3.91-10.83-3.86s-5.15,2.12-3.99,4.96c5.05,12.33,28.37,7.97,22.9-9.92-.56-1.83-6.18-6.9-7.86-8.6ZM33.99-41.53H11.99l.93,6.56,6.07.44V-.53h8v-34l6.07-.44.93-6.56ZM46.99-41.53h-8V-.53h8v-19h14V-.53l8-1.5v-39.5h-8v15h-14v-15ZM98.85-41.38l-8.76-.04L76-.53c7.82,1.33,8.99-2.01,10.1-8.89l15.44-.18c3.45.4,2.7,12.35,11.46,9.07l-14.14-40.85ZM126.99-41.53h-8V-.53l6.34-.16,1.66-1.34v-39.5ZM236.99-41.53h-8V-.53h8v-41ZM282.99-41.53h-8V-.53h8v-41ZM290.99-41.53V-.53h7v-27c4.71,3.64,15.26,26.19,19.49,27.01,1.69.32,3.74-.16,5.51,0v-41h-8v24.5c0,.23,1.9,1.34.49,1.51h-1.47c-2.04-3.43-13.74-24.93-15.22-25.79-1.56-.91-5.73.16-7.8-.21ZM352.99-41.53h-21V-2.03l1.5,1.5h19c2.05-1.26,2.23-6.29.54-7.55l-12.96-.53-.08-10.92h14l-1.15-6.86-12.86-.14v-8.01s12.89-.1,12.89-.1l.11-6.89ZM473.99-41.53l-23,15.5v284.5c25.2,4.41,38.51-2.85,49.36-25.14,21.17-43.52,19.16-118.32-.5-162.22-5.02-11.22-12.54-25.73-25.86-27.64V-41.53ZM741.99,258.47l-1.01-300c-7.8,5.8-16.33,11.66-22.99,18.5v281.5h24ZM689.75-9.29c-12.86,3.36-10.88,33.9,2.57,33.5,15.67-.47,13.62-37.72-2.57-33.5ZM76.71,55.17c2.71-3.15-5.46-16.89-7.22-20.69l-9.52,14c-17.5-14.8-33.48.44-40,17.48-10.16,26.53-7.99,64.53,11.92,86.17-4.28,7.99-11.69,14.48-14.36,23.39-6.92,23.08,17.88,45.85,26.33,65.61,9.46,22.13,7.88,45.44-19.86,49.36l7.02,22c33.12-5.41,46.73-39.93,37.44-69.97-6.01-19.44-31.58-43.94-30.51-62.57.87-15.25,14.9-20.44,22.47-30.56,14.81-19.83,17.75-51.56,12.29-75.11-1.74-7.52-6.3-8.76-.23-15.82,1.37-1.59,3.41-2.32,4.24-3.28ZM108.49,43.47c-4.87-.39-10.08.28-15,0l-1.5,1.5v213.5h23l-1.04-189.33c4.36-3.54,11.06-1.49,12.95,3.69l2.07.63,14.09-22.47c-5.97-7.42-16.04-11.51-24.98-5.93l-7.09,6.4v-8c-1.01.75-1.75.07-2.51,0ZM194.98,234.47c-1.12-1.02-13.1,9.36-20.51,1.02-6.65-7.49-10.15-36.21-10.52-46.48-.12-3.38-.53-10.71.58-13.5,1.65-4.11,14.71-17.72,18.43-22.57s21.62-27.55,22.08-30.91c.83-6.01-1.29-24.07-2.17-30.94-1.93-15.1-10.34-61.26-34.81-45.05-15.71,10.4-22.85,50.3-24.94,68.06-3.75,31.79-7.03,119.46,19.96,140.78,11.61,9.17,30.24,7.72,39.63-3.9l-7.73-16.51ZM650.98,71.47l8.54-19.01c-30.94-27.06-57.26,5.73-55.57,38.56,2.26,43.91,45.99,61.27,42.08,115-1.31,18-10.65,46.57-31.02,24.46-.75,4.84-8.27,13.9-8.89,17.72-.7,4.31,13.22,11.58,17.46,12.18,40.2,5.71,48.11-57.99,42.96-85.96-5.53-29.99-43.05-66.39-41.44-90.31.64-9.41,5.91-21.01,17.18-18.42,3.88.89,4.92,5.3,8.7,5.78ZM258.58,46.92c-14.44-10.44-24.94,2.89-30.45,15.2-17.13,38.32-20.59,142.3-2.02,179.73,9.79,19.73,32.07,26.34,48.74,9.99l-8.84-16.95c-1.19-.72-9.62,6.59-16.58,2.63-10.39-5.91-14.02-51.31-11.93-63.04l39.01-50.49c-.78-18.54-1.63-65.29-17.94-77.08ZM352.99,258.47V65.97c0-2.24-3.83-11.43-5.46-13.54-2.01-2.59-10.09-7.96-13.04-7.96h-44.5v214h21V64.47c20.36.16,20,7.48,20,8.5v185.5h22ZM594.99,258.47V57.97c0-1.1-2.85-6.8-3.94-8.06-1.36-1.56-7.97-5.44-9.56-5.44h-41.5c-.57,1.39,1,2.99,1,3.5v20.5c7.11-2.47,22.41-4.9,28.95-.45,4.08,2.77,1.21,15.1,2.05,19.96-7.56,8.08-16.16,15.23-22.98,24.02-27.33,35.24-34.54,95.15-5.97,131.67,14.25,18.21,30.8,16.02,51.94,14.8ZM702.99,44.47h-23v214h23V44.47Z"/>
  <g>
    <g>
      <g>
        <path class="cls-2" d="M606.26,306.5c-21.14,1.21-37.69,3.41-51.94-14.8-28.57-36.52-21.35-96.43,5.97-131.67,6.82-8.79,15.42-15.94,22.98-24.02.16-5.75,2.02-17.19-2.05-19.96-6.54-4.45-23.18-2.22-30.28.25l.33-23.8h41.5c11.82.02,13.5,12.4,13.5,13.5v200.5ZM583.26,284.5v-120c-15.1,14.64-23.68,35.38-25.05,56.45s-.47,57.02,25.05,63.55Z"/>
        <path class="cls-2" d="M662.24,119.5s-4.82-4.89-8.7-5.78c-11.26-2.59-16.54,9.01-17.18,18.42-1.62,23.93,35.91,60.32,41.44,90.31,5.15,27.97-2.51,89.45-42.96,85.96-7.74-.67-17.46-12.18-17.46-12.18,0,0,2.82-7.87,8.89-17.72,20.37,22.11,29.72-6.47,31.02-24.46,3.91-53.73-39.82-71.09-42.08-115-1.69-32.83,24.63-65.62,55.57-38.56l-8.54,19.01Z"/>
        <g>
          <path class="cls-2" d="M753.26,306.5h-24V25c6.66-6.84,15.19-12.7,22.99-18.5l1.01,300Z"/>
          <rect class="cls-2" x="691.26" y="92.5" width="23" height="214"/>
          <path class="cls-2" d="M701.02,38.74c16.19-4.22,18.24,33.03,2.57,33.5-13.45.4-15.43-30.14-2.57-33.5Z"/>
        </g>
        <path class="cls-2" d="M485.26,6.5v85c13.32,1.92,20.83,16.43,25.86,27.64,19.66,43.89,21.67,118.7.5,162.22-10.85,22.3-24.16,29.56-49.36,25.14V22l23-15.5ZM485.26,115.5v169l.27-.16c11.46-16.41,22.46-100.41,12.42-141.02-2.4-9.71-5.61-20.46-12.69-27.81Z"/>
      </g>
      <g>
        <path class="cls-2" d="M364.26,306.5h-22V121c-.63-10.03-7.95-8.47-20-8.5v194h-21V92.5h44.5c8.07.64,11.94,3.7,13.82,6.39,2.78,3.97,4.96,6.94,4.68,15.11v192.5Z"/>
        <path class="cls-2" d="M89.53,102l-8.11,7.78s1.11,6.35,2.54,12.53c5.46,23.56,2.52,55.28-12.29,75.11-7.56,10.13-21.59,15.31-22.47,30.56-1.07,18.63,24.5,43.13,30.51,62.57,9.29,30.03-4.33,64.55-37.44,69.97l-7.02-22c27.74-3.92,29.33-27.23,19.86-49.36-8.45-19.76-33.25-42.53-26.33-65.61,2.67-8.91,10.08-15.4,14.36-23.39-19.91-21.63-22.07-59.64-11.92-86.17,6.52-17.04,22.51-32.28,40-17.48l9.52-14c1.76,3.8,8.78,19.49,8.78,19.49ZM54.96,114.63c-8.63,2.47-9.22,35.95-8.69,43.36.31,4.31,3.34,26.52,8.47,26.58,3.47-1.07,5.39-6.31,6.55-9.52,4.85-13.37,5.44-37.4,2.11-51.19-.89-3.71-3.83-10.54-8.45-9.22Z"/>
        <path class="cls-2" d="M206.24,282.5l7.73,16.51c-9.39,11.62-28.02,13.07-39.63,3.9-26.99-21.32-23.71-108.99-19.96-140.78,2.09-17.76,9.23-57.66,24.94-68.06,24.48-16.2,32.88,29.95,34.81,45.05.88,6.87,3,24.93,2.17,30.94-.46,3.36-18.46,26.19-22.08,30.91s-16.78,18.47-18.43,22.57c-1.12,2.78-.7,10.12-.58,13.5.36,10.27,3.86,38.99,10.52,46.48,7.41,8.34,18.68-.75,20.51-1.02ZM174.31,194.01l20.92-25.04c1.37-6.84-.95-45.05-3.46-51.49-5.64-14.43-12.66,12.53-13.39,16.63-3.43,19.18-3.64,40.45-4.13,59.87l.06.02Z"/>
        <path class="cls-2" d="M269.85,94.94c16.3,11.79,17.16,58.55,17.94,77.08l-39.01,50.49c-2.09,11.73,1.54,57.12,11.93,63.04,6.96,3.96,15.3-2.34,16.58-2.63l8.84,16.95c-16.67,16.35-38.95,9.74-48.74-9.99-18.57-37.43-15.11-141.42,2.02-179.73,5.5-12.31,16.01-25.64,30.45-15.2ZM261.78,114.17c-1.48-.84-3.88.25-4.97,1.39-5.4,5.63-7.92,36.51-8.54,45.46-.76,10.98-.77,14.25-1,33.49,3.71-4.15,19.13-21.28,19.97-25.52,1.75-8.77-.41-42.23-3.09-50.88-.26-.85-2-3.73-2.37-3.94Z"/>
        <path class="cls-2" d="M122.25,91.49v8s7.11-6.4,7.11-6.4c8.94-5.58,19.01-1.49,24.98,5.93l-14.09,22.47v.04c-1.91-5.18-10.66-7.9-15.02-4.36l1.04,189.33h-23l-.07-215.01h19.06Z"/>
      </g>
    </g>
    <g>
      <polygon class="cls-2" points="302.28 6.43 310.05 6.45 326.27 33.28 326.29 6.42 334.25 6.45 334.26 47.5 326.91 47.45 309.26 20.5 309.26 47.5 302.26 47.5 302.28 6.43"/>
      <polygon class="cls-2" points="58.26 6.5 58.26 21.5 72.26 21.5 72.26 6.5 80.26 6.5 80.19 47.38 72.26 47.5 72.26 28.5 58.26 28.5 58.26 47.5 50.26 47.5 50.26 6.5 58.26 6.5"/>
      <path class="cls-2" d="M110.09,6.43l14.17,41.06-7.64.03-3.52-9.38-14.31-.06-2.99,9.44-8.54-.03,14.07-41.06h8.76ZM110.64,30.66l-4.68-13.32-4.64,13.32h9.32Z"/>
      <path class="cls-2" d="M178.24,6.51c4.51-.66,12.94,1.36,17.9,7.1,0,0,0,0,0,0,0,0-.09.12-4.27,4.77-2.04-2.09-4.26-4.39-7.23-4.95-22.88-4.34-23.75,30.95-.07,25.21,2.92-.71,7.33-4.84,7.33-4.84l3.92,5.71s-7.44,7.93-15.13,7.95c-27.05.07-29.41-37-2.45-40.96Z"/>
      <path class="cls-2" d="M218.75,39.51c3.12,0,5.5-1.4,5.58-3.8.29-8.94-.07-29.21-.07-29.21h8l-.17,29.33c-.33,15.28-27.36,15.61-26.79,0,.41-11.04-.05-29.34-.05-29.34l8.3-.02s.01,20.73-.1,29.13c-.03,2.32,2.45,3.89,5.29,3.89Z"/>
      <polygon class="cls-2" points="364.42 6.42 364.42 13.57 351.25 13.5 351.25 21.51 364.4 21.6 364.4 28.65 351.26 28.69 351.34 39.42 364.4 39.5 364.4 47.51 343.28 47.53 343.28 6.4 364.42 6.42"/>
      <path class="cls-2" d="M269.95,23.33c1.69,1.7,7.19,6.53,7.86,8.6,4.69,14.56-15.2,19.72-21.4,12.26-.57-.69-2.98-3.49-2.98-3.49l5.47-3.8s3.54,4.03,7.64,4.33c3.08.22,5.5-2.72,4.38-5.59-1.7-4.36-8.11-8.66-10.97-12-11.07-12.96,7.89-24.02,17.35-12.08l-4.42,5.34c-2.28-2.99-5.25-5.06-8-3.69-1.95.97-2.3,3.6-.77,5.15,1.91,1.92,4.88,4.02,5.83,4.98Z"/>
      <polygon class="cls-2" points="45.28 6.43 45.28 13.52 38.22 13.6 38.26 47.5 30.26 47.5 30.26 13.6 23.31 13.6 23.27 6.39 45.28 6.43"/>
      <rect class="cls-2" x="240.26" y="6.5" width="8" height="41"/>
      <rect class="cls-2" x="286.26" y="6.43" width="8" height="41.07"/>
      <polygon class="cls-2" points="138.26 6.5 138.23 47.55 130.26 47.5 130.26 6.5 138.26 6.5"/>
    </g>
  </g>
</svg>