<svg width="725" height="164" viewBox="0 0 725 164" fill="none" xmlns="http://www.w3.org/2000/svg">
<g clip-path="url(#clip0_573_820)">
<path d="M65.408 96.64C65.408 89.344 63.616 88.448 54.144 87.552V86.272H88.192V87.552C78.72 88.448 76.928 89.344 76.928 96.64V120.064C68.992 125.44 58.752 129.28 48 129.28C21.888 129.28 4.224 109.44 4.224 84.992C4.224 56.448 23.808 36.864 49.536 36.864C59.52 36.864 68.48 39.808 75.264 44.288V63.232H74.112C71.552 48.256 61.568 38.656 48.512 38.656C28.032 38.656 17.28 58.368 17.28 81.408C17.28 105.6 27.264 127.36 48 127.36C54.4 127.36 60.8 125.952 65.408 121.6V96.64ZM109.858 78.592C115.746 66.56 119.97 60.16 127.138 60.16C129.442 60.16 131.234 61.056 132.002 61.824V71.808H130.21C122.402 71.808 115.234 72.832 109.858 79.616V120.448C109.858 125.696 112.93 125.952 121.89 126.72V128H88.994V126.72C95.778 126.336 98.338 125.696 98.338 120.448V71.296L89.506 67.072V66.56L109.858 60.16H110.37L109.858 78.592ZM186.724 109.568C183.652 120.704 174.308 129.28 161.38 129.28C143.46 129.28 132.836 114.56 132.836 96.64C132.836 76.032 145.636 60.16 162.02 60.16C177.38 60.16 185.7 71.168 185.7 85.504V86.528H143.204C143.076 87.424 143.076 88.448 143.076 89.472C143.076 108.928 152.548 120.704 166.116 120.704C175.076 120.704 181.86 116.48 186.212 109.312L186.724 109.568ZM160.612 62.208C151.14 62.208 144.74 72.32 143.332 84.48H174.564C174.564 72.32 170.596 62.208 160.612 62.208ZM244.667 109.568C241.595 120.704 232.251 129.28 219.323 129.28C201.403 129.28 190.779 114.56 190.779 96.64C190.779 76.032 203.579 60.16 219.963 60.16C235.323 60.16 243.643 71.168 243.643 85.504V86.528H201.147C201.019 87.424 201.019 88.448 201.019 89.472C201.019 108.928 210.491 120.704 224.059 120.704C233.019 120.704 239.803 116.48 244.155 109.312L244.667 109.568ZM218.555 62.208C209.083 62.208 202.683 72.32 201.275 84.48H232.507C232.507 72.32 228.539 62.208 218.555 62.208ZM296.368 120.448V82.176C296.368 71.808 292.528 67.584 284.464 67.584C278.448 67.584 271.92 70.144 267.312 73.856V120.448C267.312 125.696 269.872 126.336 276.656 126.72V128H246.448V126.72C253.232 126.336 255.792 125.696 255.792 120.448V71.296L246.96 67.072V66.56L267.312 60.16H267.824L267.312 72.832C272.56 66.944 280.752 60.16 290.608 60.16C302.384 60.16 307.888 67.2 307.888 80.768V120.448C307.888 125.696 310.448 126.336 317.232 126.72V128H287.024V126.72C293.808 126.336 296.368 125.696 296.368 120.448ZM472.891 128V126.72C482.363 125.824 484.155 124.928 484.155 117.632V48.512C484.155 41.216 482.363 40.32 472.891 39.424V38.144H506.683C526.779 38.144 538.043 45.312 538.043 59.008C538.043 72.832 524.475 79.744 512.827 81.152C529.083 81.792 543.291 90.24 543.291 103.68C543.291 118.016 531.003 128 510.651 128H472.891ZM505.019 40.448H496.187V80.384H505.019C518.971 80.384 525.883 73.472 525.883 60.032C525.883 47.744 518.331 40.448 505.019 40.448ZM507.067 82.688H496.187V116.864C496.187 124.032 499.899 125.696 508.731 125.696H510.267C524.475 125.696 530.747 116.096 530.747 103.424C530.747 91.392 523.707 82.688 507.067 82.688ZM598.596 79.872V115.456C598.596 120.448 600.9 122.624 604.74 122.624C606.532 122.624 608.324 122.24 609.988 121.344L610.116 121.856C607.044 126.464 602.692 129.024 597.828 129.024C591.556 129.024 587.716 124.544 587.076 117.76C582.596 123.008 575.556 129.024 566.596 129.024C557.252 129.024 550.34 122.624 550.34 113.408C550.34 103.808 558.276 98.432 568.772 94.72L586.948 88.192V78.464C586.948 68.992 583.62 62.208 575.172 62.208C567.876 62.208 564.548 67.584 564.548 75.008C564.548 77.312 564.804 79.744 565.7 82.048L558.916 83.072C556.1 82.304 553.924 79.36 553.924 75.776C553.924 66.304 564.804 60.16 577.22 60.16C591.428 60.16 598.596 66.432 598.596 79.872ZM573.252 122.368C577.86 122.368 582.596 120.96 586.948 116.736V89.856L571.588 96.128C565.188 98.816 561.22 102.912 561.22 110.08C561.22 117.376 565.956 122.368 573.252 122.368ZM633.436 129.28C625.116 129.28 616.924 126.72 612.188 123.008L611.42 104.832H612.444C615.26 117.76 623.708 127.36 634.204 127.36C641.756 127.36 648.028 122.496 648.028 113.792C648.028 96 613.34 101.76 613.34 79.232C613.34 67.456 623.324 60.16 635.356 60.16C642.524 60.16 648.284 62.208 653.532 65.536V81.536H652.508C651.1 71.68 644.572 61.952 634.716 61.952C627.164 61.952 622.3 66.944 622.3 73.984C622.3 92.8 657.5 85.888 657.5 109.056C657.5 121.344 647.516 129.28 633.436 129.28ZM676.526 50.176C672.046 50.176 668.462 46.464 668.462 41.984C668.462 37.504 672.046 33.792 676.526 33.792C681.134 33.792 684.718 37.504 684.718 41.984C684.718 46.464 681.134 50.176 676.526 50.176ZM682.926 60.16V120.448C682.926 125.696 685.486 126.336 692.27 126.72V128H662.062V126.72C668.846 126.336 671.406 125.696 671.406 120.448V71.296L662.574 67.072V66.56L682.414 60.16H682.926ZM713.988 27.776V120.448C713.988 125.696 716.548 126.336 723.332 126.72V128H693.124V126.72C699.908 126.336 702.468 125.696 702.468 120.448V38.912L693.636 34.688V34.176L713.476 27.776H713.988Z" fill="#E0B87A"/>
<path d="M367.426 19.5L0 20V17H372L367.426 19.5Z" fill="#E0B87A"/>
<path d="M369.402 147.5L0 147V150H374L369.402 147.5Z" fill="#E0B87A"/>
<path d="M423.75 19.5L725 20V17H420L423.75 19.5Z" fill="#E0B87A"/>
<path d="M422.762 147.5L725 147V150H419L422.762 147.5Z" fill="#E0B87A"/>
<path d="M414.846 56.8117L396.719 78.8803L377.96 56.9314L377.95 56.9201L377.94 56.9093C373.742 52.5523 371.148 46.7036 371.085 40.2524C371.023 33.8579 373.457 28.0066 377.505 23.5819L377.803 23.2556L377.752 23.1958L395.957 1.03085L414.593 22.8353L414.557 22.88L414.862 23.2003C419.004 27.5467 421.559 33.3555 421.621 39.7578C421.686 46.3253 419.116 52.32 414.87 56.7845L414.857 56.7977L414.846 56.8117ZM396.312 76.4574L396.7 76.911L397.079 76.4499L413.909 55.9593L413.953 55.9128C417.985 51.6739 420.417 45.9919 420.356 39.7702C420.297 33.7048 417.879 28.1992 413.946 24.0729L412.869 22.9423L412.943 22.8515L412.671 22.533L396.364 3.45376L395.977 3.00013L395.598 3.46126L379.668 22.8559L379.402 23.1797L379.491 23.2841L378.438 24.4356C374.595 28.6362 372.291 34.1819 372.35 40.24C372.41 46.3517 374.865 51.8952 378.851 56.0317L378.887 56.0696L396.312 76.4574Z" fill="#E0B87A" stroke="#E0B87A"/>
<path d="M395.283 2.67526L396.548 2.66288L397.278 77.2694L396.014 77.2818L395.283 2.67526Z" fill="#E0B87A" stroke="#E0B87A"/>
<path d="M419.454 34.0147L420.357 34.9003L397.624 58.0822L396.721 57.1967L419.454 34.0147Z" fill="#E0B87A" stroke="#E0B87A"/>
<path d="M371.916 35.1684L372.802 34.2653L396.191 57.2015L395.306 58.1046L371.916 35.1684Z" fill="#E0B87A" stroke="#E0B87A"/>
<path d="M412.595 22.1831L413.498 23.0687L397.442 39.4421L396.539 38.5565L412.595 22.1831Z" fill="#E0B87A" stroke="#E0B87A"/>
<path d="M378.282 22.9496L379.168 22.0466L396.009 38.5614L395.123 39.4644L378.282 22.9496Z" fill="#E0B87A" stroke="#E0B87A"/>
<path d="M404.817 12.3433L405.72 13.2289L397.269 21.8465L396.366 20.9609L404.817 12.3433Z" fill="#E0B87A" stroke="#E0B87A"/>
<path d="M386.212 13.3007L387.098 12.3976L395.836 20.9667L394.951 21.8698L386.212 13.3007Z" fill="#E0B87A" stroke="#E0B87A"/>
<path d="M415.864 140.671L397.853 162.835L378.979 140.985L378.969 140.973L378.959 140.963C374.738 136.628 372.114 130.793 372.017 124.342C371.921 117.948 374.324 112.084 378.348 107.638L378.645 107.31L378.594 107.251L396.683 84.9902L415.433 106.696L415.396 106.741L415.703 107.06C419.868 111.385 422.453 117.18 422.549 123.582C422.648 130.149 420.11 136.157 415.888 140.644L415.875 140.657L415.864 140.671ZM397.434 160.414L397.824 160.865L398.2 160.402L414.922 139.824L414.966 139.777C418.976 135.517 421.378 129.822 421.285 123.601C421.194 117.536 418.746 112.043 414.792 107.937L413.709 106.812L413.783 106.721L413.509 106.404L397.102 87.4109L396.712 86.9593L396.336 87.4225L380.508 106.901L380.244 107.226L380.333 107.33L379.286 108.487C375.466 112.707 373.19 118.265 373.282 124.323C373.373 130.434 375.858 135.965 379.865 140.08L379.902 140.118L397.434 160.414Z" fill="#E0B87A" stroke="#E0B87A"/>
<path d="M396.017 86.6384L397.281 86.6194L398.404 161.221L397.139 161.24L396.017 86.6384Z" fill="#E0B87A" stroke="#E0B87A"/>
<path d="M420.351 117.85L421.259 118.73L398.648 142.032L397.741 141.151L420.351 117.85Z" fill="#E0B87A" stroke="#E0B87A"/>
<path d="M372.82 119.253L373.701 118.345L397.211 141.158L396.33 142.066L372.82 119.253Z" fill="#E0B87A" stroke="#E0B87A"/>
<path d="M413.43 106.054L414.338 106.935L398.368 123.392L397.46 122.511L413.43 106.054Z" fill="#E0B87A" stroke="#E0B87A"/>
<path d="M379.122 107.001L380.003 106.093L396.931 122.519L396.05 123.427L379.122 107.001Z" fill="#E0B87A" stroke="#E0B87A"/>
<path d="M405.601 96.2554L406.509 97.1362L398.103 105.798L397.196 104.917L405.601 96.2554Z" fill="#E0B87A" stroke="#E0B87A"/>
<path d="M387.002 97.3107L387.883 96.4029L396.666 104.926L395.785 105.834L387.002 97.3107Z" fill="#E0B87A" stroke="#E0B87A"/>
<path d="M454.477 101.092L476.571 82.9962L454.648 64.2064L454.637 64.1967L454.626 64.1863C450.275 59.982 444.43 57.3806 437.978 57.3085C431.584 57.237 425.729 59.6633 421.299 63.7046L420.972 64.0026L420.913 63.9514L398.722 82.1261L420.501 100.792L420.546 100.756L420.866 101.061C425.206 105.21 431.011 107.772 437.414 107.844C443.981 107.917 449.979 105.356 454.45 101.116L454.463 101.103L454.477 101.092ZM474.148 82.5858L474.601 82.9742L474.14 83.3523L453.626 100.154L453.579 100.198C449.335 104.224 443.649 106.648 437.428 106.579C431.362 106.511 425.86 104.085 421.739 100.147L420.61 99.0678L420.519 99.1423L420.201 98.8696L401.145 82.5365L400.692 82.1481L401.153 81.77L420.57 65.8669L420.894 65.6014L420.998 65.6908L422.151 64.6391C426.357 60.8024 431.906 58.5055 437.964 58.5732C444.076 58.6415 449.616 61.1044 453.747 65.0959L453.785 65.1325L474.148 82.5858Z" fill="#E0B87A" stroke="#E0B87A"/>
<path d="M400.367 81.4538L400.353 82.7185L474.959 83.5523L474.973 82.2876L400.367 81.4538Z" fill="#E0B87A" stroke="#E0B87A"/>
<path d="M431.673 105.668L432.558 106.572L455.771 83.872L454.887 82.9677L431.673 105.668Z" fill="#E0B87A" stroke="#E0B87A"/>
<path d="M432.893 58.1319L431.989 59.0162L454.892 82.4376L455.797 81.5533L432.893 58.1319Z" fill="#E0B87A" stroke="#E0B87A"/>
<path d="M419.85 98.7921L420.735 99.6964L437.13 83.6631L436.246 82.7588L419.85 98.7921Z" fill="#E0B87A" stroke="#E0B87A"/>
<path d="M420.665 64.48L419.761 65.3643L436.252 82.2285L437.157 81.3442L420.665 64.48Z" fill="#E0B87A" stroke="#E0B87A"/>
<path d="M410.022 91.0016L410.906 91.9059L419.535 83.4672L418.651 82.5629L410.022 91.0016Z" fill="#E0B87A" stroke="#E0B87A"/>
<path d="M411.005 72.399L410.1 73.2833L418.657 82.0336L419.561 81.1493L411.005 72.399Z" fill="#E0B87A" stroke="#E0B87A"/>
<path d="M372.742 63.8071L394.632 82.1486L372.5 100.692L372.489 100.702L372.478 100.712C368.08 104.867 362.206 107.403 355.755 107.403C349.36 107.403 343.533 104.912 339.148 100.821L338.825 100.52L338.764 100.57L316.779 82.1486L338.764 63.727L338.809 63.7641L339.132 63.462C343.519 59.3626 349.352 56.865 355.755 56.865C362.323 56.865 368.292 59.4932 372.715 63.7827L372.728 63.7954L372.742 63.8071ZM392.205 82.5318L392.662 82.1486L392.205 81.7653L371.88 64.7354L371.834 64.6907C367.635 60.6179 361.977 58.1298 355.755 58.1298C349.689 58.1298 344.16 60.4943 339.996 64.3861L338.854 65.4525L338.764 65.3771L338.443 65.6461L319.205 81.7653L318.748 82.1486L319.205 82.5318L338.443 98.6509L338.764 98.92L338.87 98.8318L340.011 99.8963C344.174 103.78 349.696 106.139 355.755 106.139C361.867 106.139 367.434 103.738 371.609 99.7926L371.648 99.7565L392.205 82.5318Z" fill="#E0B87A" stroke="#E0B87A"/>
<path d="M318.416 82.8379V81.5731L393.026 81.5731V82.8379L318.416 82.8379Z" fill="#E0B87A" stroke="#E0B87A"/>
<path d="M349.991 58.9751L350.885 58.0807L373.843 81.0391L372.949 81.9335L349.991 58.9751Z" fill="#E0B87A" stroke="#E0B87A"/>
<path d="M350.679 106.522L349.785 105.628L372.949 82.4635L373.843 83.3579L350.679 106.522Z" fill="#E0B87A" stroke="#E0B87A"/>
<path d="M338.092 65.7188L338.986 64.8244L355.202 81.0399L354.307 81.9342L338.092 65.7188Z" fill="#E0B87A" stroke="#E0B87A"/>
<path d="M338.523 100.037L337.628 99.1427L354.307 82.4638L355.202 83.3582L338.523 100.037Z" fill="#E0B87A" stroke="#E0B87A"/>
<path d="M328.177 73.3999L329.071 72.5055L337.605 81.0401L336.711 81.9344L328.177 73.3999Z" fill="#E0B87A" stroke="#E0B87A"/>
<path d="M328.952 92.0121L328.057 91.1178L336.711 82.4636L337.606 83.3579L328.952 92.0121Z" fill="#E0B87A" stroke="#E0B87A"/>
</g>
<defs>
<clipPath id="clip0_573_820">
<rect width="725" height="164" fill="white"/>
</clipPath>
</defs>
</svg>
