<?xml version="1.0" encoding="UTF-8"?>
<svg id="Layer_1" data-name="Layer 1" xmlns="http://www.w3.org/2000/svg" viewBox="0 0 754.99 585.83">
  <defs>
    <style>
      .cls-1 {
        fill: none;
      }

      .cls-2 {
        fill: #e0b87a;
      }
    </style>
  </defs>
  <path class="cls-1" d="M1148.16-13.75v1024H-387.84V-13.75h1536ZM738.16,14.24c-20.8-14.74-50.48-17.19-75.49-15.98-82.36,4.01-200.13,51.43-252.45,116.79-39.63,49.5-55.16,114.31-51.05,177.19,1.74.23.94-2.27.99-3.48.33-7.96-.47-16.05.01-24,1.11-18.04,5.95-40.3,11.46-57.54,30.58-95.68,109.45-143.79,199.75-175.25,43.05-15,102.81-33.18,147.99-23.45,6.37,1.37,12.46,4.19,18.78,5.71ZM652.16,50.26c-4.67.35-9.84,3.27-14.01,5.47-43.37,22.85-70.97,64.43-68.97,114.52l13.78-10.71c-1.55-34.96,13.66-66.91,40.2-88.8l29.01-20.48ZM725.15,56.25c-1.67-1.6-13.85,13.48-15.44,15.05-78.2,76.5-167.85,139.03-256.31,202.91l-60.22,39.54c-.03.89,14.17,4.6,15.51,4.56,1.97-.05,6.73-3.1,8.77-4.26,28.66-16.25,60.81-40.59,88.01-59.99,65.05-46.4,127.94-95.93,183.2-153.8l36.48-44.01ZM550.16,62.26c-1.91-.14-3.42,1.54-4.89,2.59-4.54,3.23-10.91,9.03-15.12,12.88-54.72,50.17-101.55,120.2-104.98,196.51l13.01-8.71c6.9-80.11,52.54-151.76,111.98-203.28ZM394.95,289.05c1.36-2.45.8-14.69,1.23-18.28,5.44-45.41,20.74-89.33,42.97-129.03l25-37.49c-44.93,50.49-72.78,120.04-74.98,188,1.02-.78,5.5-2.69,5.78-3.2ZM738.16,178.26c-36.08,15.74-77.08,10.87-114.17,1.49l-9.83,11.49c39.81,9.54,89.67,12.91,124-12.98ZM293.75,268.69c-64.05-58.82-129.09-70.62-215.07-65.43-21.21,1.28-42.57,5.28-61.51,15-.23,1.86,2.04.78,3.04.54,4.23-1.01,8.41-3.2,12.9-4.11,39.64-8.01,136.54-.13,175.02,14.08,52.76,19.48,101.62,60.11,137.54,102.46,1.57-.89-.33-2.26-.89-3.11-12.91-19.81-33.67-43.5-51.03-59.44ZM127.74,238.67c-5.35-4.47-10.83-8.82-16.08-13.42-.75-.16-.64.97-.48,1.48,4.6,14.26,33.83,35.63,46.68,43.33,6.29,3.76,13.37,7.8,20.31,10.18-17.48-13.01-33.71-27.59-50.42-41.57ZM151.75,272.67c-23.1-14.84-46.44-29.51-68.11-46.41-4.03-1.56,2.12,5.93,2.54,6.46,23.16,29.41,70.09,55.29,103.13,72.88,40.4,21.51,82.37,41.2,125.84,55.64l-82.86-39.63c-27.5-15.29-54.12-31.96-80.55-48.94ZM107.81,264.61c-4.86-2.5-16.71-3.07-22.88-4.64-10.59-2.69-22.44-6.22-32.44-10.56-6.31-2.74-12.02-6.52-18.32-9.16,11,10.94,26.14,17.32,40.8,21.69,11.64,3.47,25.24,6.66,37.2,6.8-1.25-.51-3.77-3.84-4.35-4.14ZM678.16,242.26c-26.32,13.51-53.75,25.6-82.96,31.53-30.51,6.19-61.77,5.72-92.52,1.46l-8.51,6.99c63.36,10.27,130.61-5.23,183.99-39.98ZM280.58,319.82c-11.51-13.42-27.35-24.24-43.42-31.57,14.47,10.39,28.22,20.09,38.81,34.68,4.28,5.89,6.4,16.28,15.18,12.82-2.5-6.08-6.37-11.04-10.57-15.93ZM143.17,339.24c26.76,3.96,56.82,8.12,81.97-3.49,0-.82-5.14-3.37-6.46-3.39-2.73-.05-16.27,4.78-21.29,5.62-17.73,2.95-32.07,1.37-49.69.24-1.08-.07-4.72-.69-4.53,1.03ZM176.17,375.24c34.9,6.39,74.99,8.09,103.97-15.49-6.97-6.06-9.24-.62-15.31,2.67-24.84,13.44-46.02,15.43-74.21,13.87-3.68-.2-7.51-1.58-11.1-1.91-1.12-.1-3.58-.93-3.36.86ZM628.58,417.82c-23.86-27.2-52.37-38.31-87.4-45.1-44.28-8.58-90.71-6.82-135.02.53-.22,1.8,2.24.96,3.36.86,9.28-.79,18.75-2.52,28.09-2.92,44.36-1.86,111.78,7.19,150.46,29.62,30.26,17.55,53.51,54.81,71.91,84.09,15.86,25.24,31.5,51.63,37.18,81.32,1.87.01,1.03-4.26.88-5.39-4.56-35.44-25.56-78.41-44.47-108.53-7.48-11.91-15.76-23.97-25-34.5ZM318.16,375.25c-9.63-3.04-14.89,5.18-22.69,9.8-3.83,2.27-8.08,3.85-11.95,6.05l-21.35,7.13c16.87-1.3,36.01-6.79,49.9-16.58,1.04-.73,7.56-5.14,6.09-6.4ZM463.75,430.69c-19.46-18.34-47.31-31.86-73.58-36.43,3.16,8.17,15.07,9.31,22.67,12.82,29.77,13.77,54.87,32.06,73.83,59.17,1.5-.78-.29-2.41-.67-3.33-4.83-11.44-13.25-23.75-22.25-32.23ZM606.16,432.26c-45.56-22.66-97.91-23.85-147.99-23.01,6.38,9.29,9.77,6.09,18.45,5.95,44.26-.72,87.42,3.47,129.06,19.03l.48-1.97ZM466.58,517.82c-21.75-28.64-45.2-59.93-50.43-96.57l-4.93,1.05c3.85,48.51,37.95,93.59,77.43,119.96l-22.07-24.44ZM456.58,449.82c-1.04-1.13-1.69-2.59-2.93-3.57l-.48,1.48c18.4,32.18,40.96,63.6,69.51,87.49,8.32,6.96,17.74,14.24,27.47,19.02-35.59-30.8-61.98-69.94-93.58-104.41ZM668.16,554.24l-180.99-107.99c4.99,14.27,19.43,22.25,31.68,29.81,30.25,18.65,65.54,36.29,97.29,52.71,17.13,8.86,34.32,17.77,52.01,25.48ZM627.15,468.26c-24.6-11.35-53.05-12.96-78.99-5,1.05,1.95,5.71,5.48,7.61,5.7,3.31.4,16.47-3.41,21.85-3.76,17.07-1.12,30.06,1.63,46.32,3.77,1.08.14,3.45,1.11,3.21-.72ZM642.16,499.24c-5.56-8.22-26.55.19-32.75,4.71-.91.67-1.77.04-1.24,2.28,9.1,5.58,12.5-.41,20.84-3.64,4.22-1.63,8.65-2.83,13.15-3.36ZM589.51,545.89c-2.6-2.83-6.05-7.13-8.16-10.34-2.49-3.78-6.39-13.92-8.13-15.87-1.57-1.77-5.75-2.17-8.06-2.43,2.17,14.74,14.47,24.41,25.09,33.39l9.9,5.11c-2.69-3.73-7.79-6.76-10.64-9.86ZM162.9,566.5c-27.21,1.52-25.28,44.5,1.76,43.83,3.94-.1,16.64-4.58,15.39-9.37-1.98-7.58-8.13.53-12.45,1.22-23.61,3.79-21.42-33.28.59-27.45,2.92.77,5.43,3.42,7.47,5.51,12.04-7.23-5.84-14.12-12.76-13.73ZM196.16,598.75c-1.75-8.37,1.3-22.46,0-31.5l-7.01,1c1.4,8.97-2.53,28.59,1.59,35.92,6.2,11.02,25.41,5.26,25.41-6.41v-29.5h-8v31.5c-2.43,3.88-10.99,3.82-12-1ZM253.73,584.67c-1.49-1.5-7.85-5.74-7.52-7.8,3.29-4.89,7.46-2.55,10.44,1.36l4.42-5.34c-8.41-10.04-28.85-2.29-17.71,12.65,3.62,4.86,16.09,10.08,10.14,16.56-6.61,2.22-8.4-3.91-10.83-3.86s-5.15,2.12-3.99,4.96c5.05,12.33,28.37,7.97,22.9-9.92-.56-1.83-6.18-6.9-7.86-8.6ZM29.16,568.25H7.16l.93,6.56,6.07.44v34h8v-34l6.07-.44.93-6.56ZM42.16,568.25h-8v41h8v-19h14v19l8-1.5v-39.5h-8v15h-14v-15ZM94.02,568.39l-8.76-.04-14.1,40.89c7.82,1.33,8.99-2.01,10.1-8.89l15.44-.18c3.45.4,2.7,12.35,11.46,9.07l-14.14-40.85ZM122.16,568.25h-8v41l6.34-.16,1.66-1.34v-39.5ZM232.16,568.25h-8v41h8v-41ZM278.16,568.25h-8v41h8v-41ZM286.16,568.25v41h7v-27c4.71,3.64,15.26,26.19,19.49,27.01,1.69.32,3.74-.16,5.51,0v-41h-8v24.5c0,.23,1.9,1.34.49,1.51h-1.47c-2.04-3.43-13.74-24.93-15.22-25.79-1.56-.91-5.73.16-7.8-.21ZM348.16,568.25h-21v39.5l1.5,1.5h19c2.05-1.26,2.23-6.29.54-7.55l-12.96-.53-.08-10.92h14l-1.15-6.86-12.86-.14v-8.01s12.89-.1,12.89-.1l.11-6.89ZM469.16,568.25l-23,15.5v284.5c25.2,4.41,38.51-2.85,49.36-25.14,21.17-43.52,19.16-118.32-.5-162.22-5.02-11.22-12.54-25.73-25.86-27.64v-85ZM737.16,868.25l-1.01-300c-7.8,5.8-16.33,11.66-22.99,18.5v281.5h24ZM684.92,600.49c-12.86,3.36-10.88,33.9,2.57,33.5,15.67-.47,13.62-37.72-2.57-33.5ZM71.88,664.94c2.71-3.15-5.46-16.89-7.22-20.69l-9.52,14c-17.5-14.8-33.48.44-40,17.48-10.16,26.53-7.99,64.53,11.92,86.17-4.28,7.99-11.69,14.48-14.36,23.39-6.92,23.08,17.88,45.85,26.33,65.61,9.46,22.13,7.88,45.44-19.86,49.36l7.02,22c33.12-5.41,46.73-39.93,37.44-69.97-6.01-19.44-31.58-43.94-30.51-62.57.87-15.25,14.9-20.44,22.47-30.56,14.81-19.83,17.75-51.56,12.29-75.11-1.74-7.52-6.3-8.76-.23-15.82,1.37-1.59,3.41-2.32,4.24-3.28ZM103.66,653.25c-4.87-.39-10.08.28-15,0l-1.5,1.5v213.5h23l-1.04-189.33c4.36-3.54,11.06-1.49,12.95,3.69l2.07.63,14.09-22.47c-5.97-7.42-16.04-11.51-24.98-5.93l-7.09,6.4v-8c-1.01.75-1.75.07-2.51,0ZM190.15,844.25c-1.12-1.02-13.1,9.36-20.51,1.02-6.65-7.49-10.15-36.21-10.52-46.48-.12-3.38-.53-10.71.58-13.5,1.65-4.11,14.71-17.72,18.43-22.57s21.62-27.55,22.08-30.91c.83-6.01-1.29-24.07-2.17-30.94-1.93-15.1-10.34-61.26-34.81-45.05-15.71,10.4-22.85,50.3-24.94,68.06-3.75,31.79-7.03,119.46,19.96,140.78,11.61,9.17,30.24,7.72,39.63-3.9l-7.73-16.51ZM646.15,681.25l8.54-19.01c-30.94-27.06-57.26,5.73-55.57,38.56,2.26,43.91,45.99,61.27,42.08,115-1.31,18-10.65,46.57-31.02,24.46-.75,4.84-8.27,13.9-8.89,17.72-.7,4.31,13.22,11.58,17.46,12.18,40.2,5.71,48.11-57.99,42.96-85.96-5.53-29.99-43.05-66.39-41.44-90.31.64-9.41,5.91-21.01,17.18-18.42,3.88.89,4.92,5.3,8.7,5.78ZM253.75,656.69c-14.44-10.44-24.94,2.89-30.45,15.2-17.13,38.32-20.59,142.3-2.02,179.73,9.79,19.73,32.07,26.34,48.74,9.99l-8.84-16.95c-1.19-.72-9.62,6.59-16.58,2.63-10.39-5.91-14.02-51.31-11.93-63.04l39.01-50.49c-.78-18.54-1.63-65.29-17.94-77.08ZM348.16,868.25v-192.5c0-2.24-3.83-11.43-5.46-13.54-2.01-2.59-10.09-7.96-13.04-7.96h-44.5v214h21v-194c20.36.16,20,7.48,20,8.5v185.5h22ZM590.16,868.25v-200.5c0-1.1-2.85-6.8-3.94-8.06-1.36-1.56-7.97-5.44-9.56-5.44h-41.5c-.57,1.39,1,2.99,1,3.5v20.5c7.11-2.47,22.41-4.9,28.95-.45,4.08,2.77,1.21,15.1,2.05,19.96-7.56,8.08-16.16,15.23-22.98,24.02-27.33,35.24-34.54,95.15-5.97,131.67,14.25,18.21,30.8,16.02,51.94,14.8ZM698.16,654.25h-23v214h23v-214Z"/>
  <g>
    <path class="cls-2" d="M731.02,27.99c-6.32-1.52-12.41-4.34-18.78-5.71-45.18-9.74-104.94,8.45-147.99,23.45-90.31,31.46-169.18,79.57-199.75,175.25-5.51,17.24-10.35,39.5-11.46,57.54-.49,7.94.31,16.03-.01,24-.05,1.21.76,3.72-.99,3.48-4.11-62.89,11.42-127.69,51.05-177.19,52.32-65.36,170.09-112.78,252.45-116.79,25-1.22,54.69,1.23,75.49,15.98Z"/>
    <path class="cls-2" d="M718.02,70.01l-36.48,44.01c-55.26,57.87-118.15,107.4-183.2,153.8-27.2,19.4-59.34,43.74-88.01,59.99-2.04,1.16-6.81,4.21-8.77,4.26-1.35.03-15.54-3.68-15.51-4.56l60.22-39.54c88.47-63.88,178.11-126.41,256.31-202.91,1.6-1.56,13.78-16.65,15.44-15.05Z"/>
    <path class="cls-2" d="M286.61,282.44c17.36,15.95,38.12,39.63,51.03,59.44.55.85,2.46,2.23.89,3.11-35.91-42.36-84.77-82.98-137.54-102.46-38.48-14.21-135.38-22.09-175.02-14.08-4.49.91-8.67,3.09-12.9,4.11-1.01.24-3.27,1.31-3.04-.54,18.93-9.72,40.29-13.72,61.51-15,85.98-5.2,151.03,6.6,215.07,65.43Z"/>
    <path class="cls-2" d="M621.45,431.57c9.24,10.53,17.52,22.59,25,34.5,18.91,30.12,39.91,73.09,44.47,108.53.15,1.13.98,5.4-.88,5.39-5.68-29.7-21.32-56.08-37.18-81.32-18.4-29.28-41.65-66.54-71.91-84.09-38.67-22.43-106.1-31.48-150.46-29.62-9.34.39-18.81,2.13-28.09,2.92-1.13.1-3.58.93-3.36-.86,44.3-7.35,90.73-9.11,135.02-.53,35.03,6.79,63.55,17.9,87.4,45.1Z"/>
    <path class="cls-2" d="M543.02,76.01c-59.45,51.52-105.08,123.17-111.98,203.28l-13.01,8.71c3.43-76.31,50.26-146.34,104.98-196.51,4.21-3.86,10.58-9.65,15.12-12.88,1.48-1.05,2.98-2.73,4.89-2.59Z"/>
    <path class="cls-2" d="M144.61,286.43c26.43,16.98,53.04,33.65,80.55,48.94l82.86,39.63c-43.48-14.44-85.45-34.13-125.84-55.64-33.04-17.59-79.97-43.47-103.13-72.88-.42-.53-6.57-8.02-2.54-6.46,21.67,16.9,45.01,31.57,68.11,46.41Z"/>
    <path class="cls-2" d="M661.02,567.99c-17.69-7.71-34.88-16.62-52.01-25.48-31.75-16.42-67.05-34.05-97.29-52.71-12.26-7.56-26.69-15.54-31.68-29.81l180.99,107.99Z"/>
    <path class="cls-2" d="M645.02,64.01l-29.01,20.48c-26.54,21.9-41.75,53.84-40.2,88.8l-13.78,10.71c-2-50.08,25.6-91.66,68.97-114.52,4.18-2.2,9.34-5.12,14.01-5.47Z"/>
    <path class="cls-2" d="M731.02,192.01c-34.33,25.89-84.19,22.52-124,12.98l9.83-11.49c37.08,9.38,78.09,14.25,114.17-1.49Z"/>
    <path class="cls-2" d="M459.45,531.57l22.07,24.44c-39.48-26.37-73.59-71.45-77.43-119.96l4.93-1.05c5.24,36.64,28.68,67.93,50.43,96.57Z"/>
    <path class="cls-2" d="M671.02,256.01c-53.39,34.75-120.63,50.25-183.99,39.98l8.51-6.99c30.75,4.26,62.01,4.73,92.52-1.46,29.21-5.93,56.65-18.01,82.96-31.53Z"/>
    <path class="cls-2" d="M387.81,302.8c-.29.51-4.76,2.42-5.78,3.2,2.2-67.96,30.05-137.51,74.98-188l-25,37.49c-22.23,39.7-37.53,83.62-42.97,129.03-.43,3.59.13,15.83-1.23,18.28Z"/>
    <path class="cls-2" d="M449.45,463.58c31.6,34.48,57.99,73.62,93.58,104.41-9.73-4.77-19.16-12.06-27.47-19.02-28.55-23.89-51.11-55.31-69.51-87.49l.48-1.48c1.24.98,1.89,2.44,2.93,3.57Z"/>
    <path class="cls-2" d="M599.02,446.02l-.48,1.97c-41.63-15.56-84.79-19.75-129.06-19.03-8.69.14-12.07,3.34-18.45-5.95,50.08-.85,102.43.35,147.99,23.01Z"/>
    <path class="cls-2" d="M456.61,444.44c9,8.48,17.42,20.79,22.25,32.23.39.91,2.17,2.55.67,3.33-18.96-27.1-44.06-45.4-73.83-59.17-7.59-3.51-19.51-4.65-22.67-12.82,26.27,4.57,54.12,18.1,73.58,36.43Z"/>
    <path class="cls-2" d="M620.02,482.01c.23,1.83-2.13.86-3.21.72-16.26-2.14-29.25-4.89-46.32-3.77-5.37.35-18.53,4.15-21.85,3.76-1.9-.23-6.56-3.75-7.61-5.7,25.94-7.96,54.39-6.35,78.99,5Z"/>
    <path class="cls-2" d="M120.6,252.42c16.72,13.98,32.95,28.56,50.42,41.57-6.94-2.38-14.02-6.42-20.31-10.18-12.85-7.69-42.08-29.06-46.68-43.33-.16-.51-.27-1.63.48-1.48,5.25,4.6,10.73,8.95,16.08,13.42Z"/>
    <path class="cls-2" d="M169.03,388.99c-.23-1.79,2.24-.96,3.36-.86,3.59.33,7.42,1.71,11.1,1.91,28.18,1.56,49.37-.42,74.21-13.87,6.07-3.29,8.34-8.73,15.31-2.67-28.99,23.58-69.07,21.88-103.97,15.49Z"/>
    <path class="cls-2" d="M100.67,278.37c.57.29,3.09,3.63,4.35,4.14-11.96-.15-25.56-3.33-37.2-6.8-14.66-4.37-29.8-10.75-40.8-21.69,6.31,2.65,12.01,6.43,18.32,9.16,10,4.33,21.85,7.87,32.44,10.56,6.17,1.56,18.02,2.14,22.88,4.64Z"/>
    <path class="cls-2" d="M136.03,352.99c-.19-1.72,3.45-1.1,4.53-1.03,17.62,1.13,31.96,2.71,49.69-.24,5.02-.84,18.56-5.67,21.29-5.62,1.33.02,6.46,2.57,6.46,3.39-25.15,11.61-55.22,7.45-81.97,3.49Z"/>
    <path class="cls-2" d="M273.44,333.58c4.2,4.89,8.07,9.85,10.57,15.93-8.78,3.45-10.9-6.94-15.18-12.82-10.59-14.59-24.34-24.29-38.81-34.68,16.07,7.33,31.91,18.14,43.42,31.57Z"/>
    <path class="cls-2" d="M582.38,559.65c2.85,3.1,7.95,6.13,10.64,9.86l-9.9-5.11c-10.62-8.98-22.92-18.65-25.09-33.39,2.31.25,6.49.66,8.06,2.43,1.73,1.95,5.64,12.09,8.13,15.87,2.11,3.21,5.56,7.51,8.16,10.34Z"/>
    <path class="cls-2" d="M311.02,389.01c1.47,1.26-5.05,5.67-6.09,6.4-13.89,9.79-33.03,15.28-49.9,16.58l21.35-7.13c3.87-2.2,8.12-3.78,11.95-6.05,7.8-4.62,13.06-12.84,22.69-9.8Z"/>
    <path class="cls-2" d="M635.02,512.99c-4.5.53-8.93,1.73-13.15,3.36-8.34,3.23-11.74,9.21-20.84,3.64-.53-2.24.33-1.62,1.24-2.28,6.2-4.52,27.19-12.93,32.75-4.71Z"/>
  </g>
</svg>