<svg width="21" height="13" viewBox="0 0 21 13" fill="none" xmlns="http://www.w3.org/2000/svg">
<path d="M13.4961 12.0008V0.800781H20.6481V2.35278H15.4161V5.63278H19.6881V7.15278H15.4161V12.0008H13.4961Z" fill="#D08111"/>
<path d="M6.01633 12.1934C4.96033 12.1934 4.03233 11.9534 3.23233 11.4734C2.44299 10.9934 1.82966 10.3267 1.39233 9.47338C0.954995 8.60938 0.736328 7.60138 0.736328 6.44938C0.736328 5.30804 0.960328 4.30004 1.40833 3.42537C1.85633 2.54004 2.49633 1.85204 3.32833 1.36137C4.17099 0.860042 5.16833 0.609375 6.32033 0.609375C7.62166 0.609375 8.69899 0.924041 9.55233 1.55337C10.4163 2.17204 10.9763 3.03604 11.2323 4.14537H9.07233C8.91233 3.59071 8.59766 3.15871 8.12833 2.84937C7.659 2.54004 7.051 2.38538 6.30433 2.38538C5.54699 2.38538 4.89633 2.55071 4.35233 2.88137C3.81899 3.20137 3.40833 3.67071 3.12033 4.28937C2.84299 4.89737 2.70433 5.62271 2.70433 6.46537C2.70433 7.30804 2.84299 8.03337 3.12033 8.64137C3.40833 9.24937 3.81366 9.71337 4.33633 10.0334C4.859 10.3427 5.47233 10.4974 6.17633 10.4974C7.22166 10.4974 8.011 10.204 8.54433 9.61738C9.07766 9.03071 9.39233 8.26804 9.48833 7.32937H6.59233V5.87337H11.4243V12.0014H9.66433L9.50433 10.4654C9.259 10.828 8.97633 11.1427 8.65633 11.4094C8.33633 11.6654 7.95766 11.8627 7.52033 12.0014C7.09366 12.1294 6.59233 12.1934 6.01633 12.1934Z" fill="#D08111"/>
</svg>
