<?xml version="1.0" encoding="UTF-8"?>
<svg id="Layer_1" data-name="Layer 1" xmlns="http://www.w3.org/2000/svg" xmlns:xlink="http://www.w3.org/1999/xlink" viewBox="0 0 159.79 164">
  <defs>
    <style>
      .cls-1 {
        fill: none;
      }

      .cls-2 {
        fill: #e0b87a;
        stroke: #e0b87a;
      }

      .cls-3 {
        clip-path: url(#clippath);
      }
    </style>
    <clipPath id="clippath">
      <rect class="cls-1" x="-316.78" width="725" height="164"/>
    </clipPath>
  </defs>
  <g class="cls-3">
    <g>
      <path class="cls-2" d="M98.07,56.81l-18.13,22.07-18.76-21.95h0s-.01-.02-.01-.02c-4.2-4.36-6.79-10.21-6.86-16.66-.06-6.39,2.37-12.25,6.42-16.67l.3-.33-.05-.06L79.18,1.03l18.64,21.8-.04.04.3.32c4.14,4.35,6.7,10.16,6.76,16.56.07,6.57-2.51,12.56-6.75,17.03h-.01s-.01.03-.01.03ZM79.53,76.46l.39.45.38-.46,16.83-20.49.04-.05c4.03-4.24,6.46-9.92,6.4-16.14-.06-6.07-2.48-11.57-6.41-15.7l-1.08-1.13.07-.09-.27-.32L79.59,3.45l-.39-.45-.38.46-15.93,19.39-.27.32.09.1-1.05,1.15c-3.84,4.2-6.15,9.75-6.09,15.8.06,6.11,2.51,11.66,6.5,15.79l.04.04,17.43,20.39Z"/>
      <path class="cls-2" d="M78.5,2.68h1.27s.73,74.59.73,74.59h-1.26s-.73-74.59-.73-74.59Z"/>
      <path class="cls-2" d="M102.68,34.01l.9.89-22.73,23.18-.9-.89,22.73-23.18Z"/>
      <path class="cls-2" d="M55.14,35.17l.89-.9,23.39,22.94-.89.9-23.39-22.94Z"/>
      <path class="cls-2" d="M95.82,22.18l.9.89-16.06,16.37-.9-.89,16.06-16.37Z"/>
      <path class="cls-2" d="M61.5,22.95l.89-.9,16.84,16.51-.89.9-16.84-16.51Z"/>
      <path class="cls-2" d="M88.04,12.34l.9.89-8.45,8.62-.9-.89,8.45-8.62Z"/>
      <path class="cls-2" d="M69.43,13.3l.89-.9,8.74,8.57-.89.9-8.74-8.57Z"/>
      <path class="cls-2" d="M99.09,140.67l-18.01,22.16-18.87-21.85h-.01s0-.02,0-.02c-4.22-4.33-6.85-10.17-6.94-16.62-.1-6.39,2.31-12.26,6.33-16.7l.3-.33-.05-.06,18.09-22.26,18.75,21.71-.04.04.31.32c4.17,4.33,6.75,10.12,6.85,16.52.1,6.57-2.44,12.57-6.66,17.06h-.01s-.01.03-.01.03ZM80.65,160.41l.39.45.38-.46,16.72-20.58.04-.05c4.01-4.26,6.41-9.95,6.32-16.18-.09-6.06-2.54-11.56-6.49-15.66l-1.08-1.12.07-.09-.27-.32-16.41-18.99-.39-.45-.38.46-15.83,19.48-.26.32.09.1-1.05,1.16c-3.82,4.22-6.1,9.78-6,15.84.09,6.11,2.58,11.64,6.58,15.76l.04.04,17.53,20.3Z"/>
      <path class="cls-2" d="M79.24,86.64l1.26-.02,1.12,74.6-1.26.02-1.12-74.6Z"/>
      <path class="cls-2" d="M103.57,117.85l.91.88-22.61,23.3-.91-.88,22.61-23.3Z"/>
      <path class="cls-2" d="M56.04,119.25l.88-.91,23.51,22.81-.88.91-23.51-22.81Z"/>
      <path class="cls-2" d="M96.65,106.05l.91.88-15.97,16.46-.91-.88,15.97-16.46Z"/>
      <path class="cls-2" d="M62.34,107l.88-.91,16.93,16.43-.88.91-16.93-16.43Z"/>
      <path class="cls-2" d="M88.82,96.26l.91.88-8.41,8.66-.91-.88,8.4-8.66Z"/>
      <path class="cls-2" d="M70.22,97.31l.88-.91,8.78,8.52-.88.91-8.78-8.52Z"/>
      <path class="cls-2" d="M137.7,101.09l22.09-18.1-21.92-18.79h-.01s-.01-.02-.01-.02c-4.35-4.2-10.2-6.81-16.65-6.88-6.39-.07-12.25,2.35-16.68,6.4l-.33.3-.06-.05-22.19,18.17,21.78,18.67.04-.04.32.31c4.34,4.15,10.14,6.71,16.55,6.78,6.57.07,12.57-2.49,17.04-6.73h.01s.01-.02.01-.02ZM157.37,82.59l.45.39-.46.38-20.51,16.8-.05.04c-4.24,4.03-9.93,6.45-16.15,6.38-6.07-.07-11.57-2.49-15.69-6.43l-1.13-1.08-.09.07-.32-.27-19.06-16.33-.45-.39.46-.38,19.42-15.9.32-.27.1.09,1.15-1.05c4.21-3.84,9.76-6.13,15.81-6.07,6.11.07,11.65,2.53,15.78,6.52l.04.04,20.36,17.45Z"/>
      <path class="cls-2" d="M83.59,81.45v1.26s74.59.83,74.59.83v-1.26s-74.59-.83-74.59-.83Z"/>
      <path class="cls-2" d="M114.89,105.67l.89.9,23.21-22.7-.88-.9-23.21,22.7Z"/>
      <path class="cls-2" d="M116.11,58.13l-.9.88,22.9,23.42.9-.88-22.9-23.42Z"/>
      <path class="cls-2" d="M103.07,98.79l.88.9,16.4-16.03-.88-.9-16.4,16.03Z"/>
      <path class="cls-2" d="M103.89,64.48l-.9.88,16.49,16.86.9-.88-16.49-16.86Z"/>
      <path class="cls-2" d="M93.24,91l.88.9,8.63-8.44-.88-.9-8.63,8.44Z"/>
      <path class="cls-2" d="M94.23,72.4l-.9.88,8.56,8.75.9-.88-8.56-8.75Z"/>
      <path class="cls-2" d="M55.96,63.81l21.89,18.34-22.13,18.54h-.01s-.01.02-.01.02c-4.4,4.15-10.27,6.69-16.72,6.69s-12.22-2.49-16.61-6.58l-.32-.3-.06.05L0,82.15l21.99-18.42.04.04.32-.3c4.39-4.1,10.22-6.6,16.62-6.6s12.54,2.63,16.96,6.92h.01s.01.02.01.02ZM75.43,82.53l.46-.38-.46-.38-20.32-17.03-.05-.04c-4.2-4.07-9.86-6.56-16.08-6.56s-11.6,2.36-15.76,6.26l-1.14,1.07-.09-.08-.32.27L2.43,81.77l-.46.38.46.38,19.24,16.12.32.27.11-.09,1.14,1.06c4.16,3.88,9.69,6.24,15.74,6.24s11.68-2.4,15.85-6.35l.04-.04,20.56-17.22Z"/>
      <path class="cls-2" d="M1.64,82.84v-1.26h74.61v1.26H1.64Z"/>
      <path class="cls-2" d="M33.21,58.98l.89-.89,22.96,22.96-.89.89-22.96-22.96Z"/>
      <path class="cls-2" d="M33.9,106.52l-.89-.89,23.16-23.16.89.89-23.16,23.16Z"/>
      <path class="cls-2" d="M21.31,65.72l.89-.89,16.22,16.22-.89.89-16.21-16.22Z"/>
      <path class="cls-2" d="M21.74,100.04l-.9-.89,16.68-16.68.89.89-16.68,16.68Z"/>
      <path class="cls-2" d="M11.4,73.4l.89-.89,8.53,8.53-.89.89-8.53-8.53Z"/>
      <path class="cls-2" d="M12.17,92.01l-.89-.89,8.65-8.65.89.89-8.65,8.65Z"/>
    </g>
  </g>
</svg>