<svg width="360" height="447" viewBox="0 0 360 447" fill="none" xmlns="http://www.w3.org/2000/svg">
<path d="M356.905 12.4009C353.915 11.6823 351.033 10.3491 348.019 9.70138C326.64 5.09659 298.363 13.6963 277.992 20.7879C235.259 35.6612 197.938 58.4062 183.473 103.641C180.866 111.791 178.576 122.315 178.05 130.844C177.819 134.598 178.197 138.423 178.046 142.191C178.022 142.763 178.405 143.949 177.577 143.836C175.632 114.103 182.981 83.4678 201.733 60.0656C226.491 29.1654 282.218 6.74656 321.189 4.85075C333.019 4.27397 347.068 5.43226 356.91 12.4056L356.905 12.4009Z" fill="#E0B87A"/>
<path d="M350.75 32.2665L333.488 53.0732C307.34 80.4324 277.581 103.849 246.8 125.785C233.929 134.957 218.721 146.464 205.155 154.147C204.19 154.695 201.933 156.137 201.005 156.161C200.366 156.175 193.652 154.421 193.666 154.005L222.161 135.312C264.024 105.111 306.44 75.5487 343.444 39.3817C344.201 38.6442 349.964 31.5101 350.75 32.2665Z" fill="#E0B87A"/>
<path d="M146.612 132.698C154.827 140.238 164.65 151.433 170.759 160.799C171.019 161.201 171.923 161.853 171.18 162.269C154.188 142.243 131.068 123.039 106.098 113.829C87.8896 107.111 42.0379 103.386 23.2808 107.173C21.1562 107.603 19.1783 108.634 17.1767 109.116C16.6988 109.229 15.6294 109.735 15.7382 108.86C24.6956 104.265 34.8029 102.374 44.8439 101.769C85.5284 99.3105 116.309 104.889 146.612 132.702V132.698Z" fill="#E0B87A"/>
<path d="M305.054 203.207C309.426 208.185 313.344 213.886 316.883 219.517C325.831 233.757 335.768 254.072 337.926 270.827C337.997 271.361 338.39 273.38 337.509 273.375C334.822 259.334 327.421 246.862 319.916 234.93C311.21 221.087 300.208 203.471 285.89 195.174C267.591 184.57 235.684 180.291 214.694 181.171C210.274 181.355 205.793 182.178 201.402 182.551C200.867 182.599 199.708 182.991 199.812 182.145C220.774 178.67 242.744 177.838 263.702 181.894C280.278 185.104 293.773 190.357 305.058 203.216L305.054 203.207Z" fill="#E0B87A"/>
<path d="M267.946 35.1079C239.815 59.4651 218.224 93.3391 214.959 131.213L208.803 135.331C210.426 99.2534 232.585 66.1453 258.478 42.4264C260.47 40.6015 263.484 37.8642 265.632 36.3371C266.333 35.8407 267.042 35.0464 267.946 35.1126V35.1079Z" fill="#E0B87A"/>
<path d="M79.4245 134.584C91.9308 142.611 104.522 150.492 117.54 157.721L156.748 176.457C136.174 169.63 116.314 160.321 97.2021 150.152C81.5681 141.836 59.3614 129.601 48.4024 115.696C48.2037 115.446 45.2936 111.905 47.2006 112.642C57.4545 120.632 68.4987 127.568 79.4293 134.584H79.4245Z" fill="#E0B87A"/>
<path d="M323.783 267.697C315.412 264.052 307.278 259.839 299.172 255.651C284.149 247.888 267.445 239.553 253.136 230.731C247.335 227.157 240.507 223.384 238.146 216.638L323.787 267.692L323.783 267.697Z" fill="#E0B87A"/>
<path d="M316.207 29.4351L302.479 39.1174C289.921 49.4711 282.724 64.5714 283.457 81.0994L276.937 86.1628C275.991 62.4865 289.05 42.8287 309.573 32.0211C311.55 30.981 313.992 29.6005 316.202 29.4351H316.207Z" fill="#E0B87A"/>
<path d="M356.906 89.9497C340.661 102.19 317.068 100.597 298.23 96.0863L302.882 90.6541C320.428 95.0887 339.833 97.3911 356.906 89.9497Z" fill="#E0B87A"/>
<path d="M228.398 250.484L238.841 262.038C220.16 249.571 204.019 228.259 202.202 205.325L204.535 204.828C207.014 222.15 218.106 236.943 228.398 250.484Z" fill="#E0B87A"/>
<path d="M328.515 120.207C303.251 136.636 271.434 143.964 241.453 139.108L245.48 135.804C260.03 137.818 274.822 138.04 289.259 135.113C303.081 132.31 316.065 126.599 328.515 120.207Z" fill="#E0B87A"/>
<path d="M194.504 142.323C194.366 142.564 192.251 143.467 191.769 143.836C192.81 111.706 205.988 78.8253 227.248 54.9551L215.418 72.6793C204.899 91.4482 197.66 112.212 195.086 133.681C194.882 135.378 195.147 141.165 194.504 142.323Z" fill="#E0B87A"/>
<path d="M223.665 218.335C238.618 234.636 251.106 253.14 267.946 267.697C263.342 265.442 258.88 261.995 254.948 258.705C241.438 247.411 230.763 232.556 222.057 217.342L222.284 216.643C222.871 217.106 223.178 217.796 223.67 218.33L223.665 218.335Z" fill="#E0B87A"/>
<path d="M294.44 210.033L294.213 210.965C274.514 203.608 254.091 201.627 233.143 201.968C229.031 202.034 227.432 203.547 224.413 199.155C248.11 198.753 272.882 199.32 294.44 210.033Z" fill="#E0B87A"/>
<path d="M227.053 209.287C231.312 213.296 235.296 219.115 237.582 224.524C237.766 224.954 238.609 225.729 237.899 226.098C228.927 213.286 217.05 204.634 202.963 198.124C199.372 196.465 193.732 195.926 192.236 192.063C204.667 194.224 217.845 200.621 227.053 209.287Z" fill="#E0B87A"/>
<path d="M304.377 227.053C304.486 227.918 303.369 227.46 302.858 227.393C295.164 226.382 289.017 225.082 280.94 225.611C278.399 225.777 272.172 227.573 270.601 227.389C269.702 227.28 267.497 225.616 267 224.694C279.274 220.931 292.737 221.692 304.377 227.058V227.053Z" fill="#E0B87A"/>
<path d="M68.0588 118.51C75.9705 125.119 83.6503 132.012 91.9169 138.163C88.633 137.038 85.2828 135.128 82.3065 133.35C76.226 129.714 62.3948 119.611 60.2181 112.865C60.1424 112.624 60.0904 112.094 60.4453 112.165C62.9295 114.34 65.5226 116.396 68.0541 118.51H68.0588Z" fill="#E0B87A"/>
<path d="M90.9749 183.071C90.866 182.225 92.0348 182.617 92.5648 182.664C94.2635 182.82 96.0758 183.473 97.8172 183.567C111.152 184.305 121.178 183.369 132.932 177.01C135.805 175.455 136.879 172.883 140.177 175.748C126.459 186.896 107.494 186.092 90.9796 183.071H90.9749Z" fill="#E0B87A"/>
<path d="M58.6275 130.773C58.8972 130.91 60.0897 132.489 60.6859 132.73C55.0266 132.66 48.5912 131.156 43.0833 129.516C36.1464 127.45 28.9824 124.433 23.7773 119.261C26.7631 120.514 29.4603 122.301 32.4461 123.592C37.178 125.639 42.7852 127.313 47.7963 128.584C50.7158 129.322 56.3231 129.596 58.6228 130.778L58.6275 130.773Z" fill="#E0B87A"/>
<path d="M75.3598 166.052C75.2699 165.238 76.9923 165.531 77.5034 165.565C85.8409 166.099 92.6264 166.846 101.016 165.451C103.391 165.054 109.798 162.77 111.09 162.794C111.719 162.804 114.147 164.009 114.147 164.397C102.246 169.886 88.0176 167.919 75.3598 166.047V166.052Z" fill="#E0B87A"/>
<path d="M140.385 156.875C142.372 159.187 144.203 161.532 145.386 164.406C141.232 166.037 140.228 161.125 138.203 158.345C133.192 151.448 126.686 146.862 119.839 141.95C127.443 145.415 134.938 150.526 140.385 156.875Z" fill="#E0B87A"/>
<path d="M286.566 263.754C287.915 265.22 290.328 266.652 291.601 268.416L286.916 266C281.891 261.754 276.071 257.183 275.044 250.214C276.137 250.332 278.115 250.526 278.858 251.363C279.676 252.285 281.527 257.078 282.705 258.866C283.703 260.383 285.336 262.416 286.566 263.754Z" fill="#E0B87A"/>
<path d="M158.163 183.081C158.858 183.676 155.773 185.761 155.281 186.106C148.708 190.735 139.652 193.33 131.669 193.945L141.771 190.574C143.603 189.534 145.614 188.787 147.426 187.714C151.117 185.53 153.606 181.643 158.163 183.081Z" fill="#E0B87A"/>
<path d="M311.48 241.695C309.35 241.945 307.254 242.513 305.257 243.283C301.311 244.81 299.702 247.637 295.396 245.004C295.145 243.945 295.552 244.238 295.983 243.926C298.917 241.789 308.849 237.813 311.48 241.699V241.695Z" fill="#E0B87A"/>
<path d="M286.873 416.151C276.87 416.724 269.039 417.764 262.296 409.154C248.777 391.889 252.193 363.565 265.121 346.905C268.348 342.749 272.417 339.369 275.995 335.549C276.07 332.83 276.95 327.422 275.025 326.112C271.93 324.008 264.056 325.063 260.696 326.23L260.853 314.979H280.49C286.083 314.988 286.878 320.841 286.878 321.361V416.151H286.873ZM275.99 405.75V349.018C268.845 355.939 264.785 365.745 264.137 375.706C263.488 385.667 263.914 402.663 275.99 405.75Z" fill="#E0B87A"/>
<path d="M313.362 327.743C313.362 327.743 311.081 325.431 309.245 325.011C303.917 323.786 301.418 329.27 301.116 333.719C300.349 345.033 318.108 362.237 320.724 376.415C323.161 389.638 319.537 418.704 300.396 417.054C296.734 416.738 292.135 411.296 292.135 411.296C292.135 411.296 293.469 407.575 296.341 402.919C305.98 413.372 310.404 399.86 311.019 391.355C312.87 365.953 292.177 357.745 291.108 336.986C290.308 321.465 302.762 305.963 317.403 318.756L313.362 327.743Z" fill="#E0B87A"/>
<path d="M356.432 416.152H345.075V283.067C348.227 279.833 352.263 277.062 355.954 274.32L356.432 416.152Z" fill="#E0B87A"/>
<path d="M337.977 314.979H327.094V416.151H337.977V314.979Z" fill="#E0B87A"/>
<path d="M331.712 289.562C339.373 287.567 340.343 305.178 332.929 305.4C326.564 305.589 325.627 291.151 331.712 289.562Z" fill="#E0B87A"/>
<path d="M229.618 274.32V314.506C235.92 315.414 239.474 322.273 241.854 327.573C251.157 348.323 252.108 383.691 242.091 404.266C236.957 414.809 230.659 418.241 218.734 416.152V281.648L229.618 274.32ZM229.618 325.852V405.751L229.745 405.675C235.168 397.917 240.373 358.204 235.622 339.005C234.487 334.414 232.968 329.332 229.618 325.857V325.852Z" fill="#E0B87A"/>
<path d="M172.362 416.152H161.952V328.453C161.654 323.711 158.191 324.449 152.489 324.434V416.152H142.552V314.979H163.609C167.427 315.282 169.258 316.728 170.148 318C171.463 319.877 172.495 321.281 172.362 325.144V416.152Z" fill="#E0B87A"/>
<path d="M42.364 319.47L38.5265 323.148C38.5265 323.148 39.0517 326.15 39.7284 329.072C42.312 340.211 40.9208 355.207 33.9129 364.582C30.3356 369.371 23.6968 371.82 23.2804 379.03C22.7741 387.838 34.8735 399.42 37.7173 408.611C42.1132 422.808 35.6684 439.128 20.0013 441.691L16.6795 431.29C29.8057 429.437 30.558 418.416 26.077 407.954C22.0785 398.612 10.3435 387.847 13.618 376.935C14.8814 372.723 18.3877 369.655 20.4129 365.877C10.9918 355.651 9.96971 337.681 14.7725 325.139C17.8577 317.083 25.424 309.878 33.7 316.875L38.2047 310.256C39.0375 312.052 42.3593 319.47 42.3593 319.47H42.364ZM26.006 325.441C21.9224 326.609 21.6432 342.437 21.894 345.941C22.0407 347.978 23.4744 358.478 25.9019 358.507C27.5438 358.001 28.4524 355.524 29.0013 354.006C31.2962 347.685 31.5754 336.324 29.9997 329.805C29.5785 328.051 28.1874 324.822 26.0013 325.446L26.006 325.441Z" fill="#E0B87A"/>
<path d="M97.5891 404.805L101.247 412.611C96.8036 418.104 87.9882 418.79 82.4945 414.455C69.7232 404.375 71.2752 362.927 73.0497 347.898C74.0386 339.502 77.4172 320.638 84.851 315.721C96.4345 308.062 100.409 329.881 101.323 337.02C101.739 340.268 102.742 348.806 102.349 351.647C102.132 353.236 93.6144 364.029 91.9014 366.26C90.1885 368.492 83.9614 374.993 83.1806 376.931C82.6506 378.245 82.8494 381.715 82.9062 383.313C83.0765 388.169 84.7326 401.747 87.8841 405.288C91.3904 409.231 96.7232 404.933 97.5891 404.805ZM82.4803 362.975L92.3793 351.137C93.0276 347.903 91.9298 329.838 90.7421 326.794C88.0733 319.971 84.7516 332.717 84.4062 334.656C82.7831 343.723 82.6838 353.779 82.4519 362.961L82.4803 362.97V362.975Z" fill="#E0B87A"/>
<path d="M127.689 316.137C135.402 321.711 135.809 343.818 136.178 352.578L117.719 376.448C116.73 381.994 118.448 403.453 123.364 406.252C126.658 408.124 130.604 405.146 131.21 405.009L135.393 413.022C127.505 420.752 116.962 417.627 112.33 408.299C103.542 390.603 105.18 341.44 113.285 323.328C115.888 317.508 120.861 311.206 127.694 316.142L127.689 316.137ZM123.871 325.224C123.17 324.827 122.035 325.342 121.519 325.881C118.964 328.543 117.771 343.142 117.478 347.373C117.118 352.564 117.113 354.11 117.005 363.206C118.76 361.244 126.057 353.146 126.454 351.141C127.282 346.995 126.26 331.176 124.992 327.086C124.869 326.685 124.046 325.323 123.871 325.224Z" fill="#E0B87A"/>
<path d="M57.8462 314.506V318.288L61.2106 315.263C65.4409 312.624 70.2058 314.558 73.0308 318.066L66.3636 328.689V328.708C65.4598 326.259 61.3194 324.973 59.2563 326.647L59.7484 416.157H48.8652L48.832 314.506H57.851H57.8462Z" fill="#E0B87A"/>
<path d="M143.035 274.288L146.712 274.302L154.387 286.986L154.396 274.288L158.163 274.297L158.167 293.704L154.689 293.681L146.338 280.939V293.704H143.025L143.035 274.288Z" fill="#E0B87A"/>
<path d="M27.5677 274.32V281.412H34.1923V274.32H37.9778L37.9447 293.652L34.1923 293.704V284.721H27.5677V293.704H23.7822V274.32H27.5677Z" fill="#E0B87A"/>
<path d="M52.0929 274.292L58.7979 293.704L55.1828 293.718L53.5172 289.284L46.7459 289.255L45.331 293.718L41.29 293.704L47.9478 274.292H52.0929ZM52.3531 285.743L50.1386 279.445L47.943 285.743H52.3531Z" fill="#E0B87A"/>
<path d="M84.3405 274.33C86.4746 274.018 90.4635 274.973 92.8105 277.687C92.8105 277.687 92.7679 277.744 90.79 279.942C89.8247 278.954 88.7743 277.867 87.3689 277.602C76.5424 275.55 76.1307 292.234 87.3358 289.52C88.7175 289.185 90.8042 287.232 90.8042 287.232L92.6591 289.932C92.6591 289.932 89.1386 293.681 85.4998 293.69C72.7001 293.723 71.5834 276.198 84.3405 274.325V274.33Z" fill="#E0B87A"/>
<path d="M103.509 289.926C104.985 289.926 106.112 289.265 106.149 288.13C106.287 283.903 106.116 274.32 106.116 274.32H109.902L109.821 288.187C109.665 295.411 96.875 295.567 97.1448 288.187C97.3388 282.967 97.1211 274.316 97.1211 274.316L101.049 274.306C101.049 274.306 101.053 284.107 101.001 288.078C100.987 289.175 102.161 289.917 103.504 289.917L103.509 289.926Z" fill="#E0B87A"/>
<path d="M172.438 274.288V277.668L166.206 277.63V281.417L172.428 281.464V284.793L166.211 284.811L166.248 289.884L172.428 289.922V293.709L162.435 293.718V274.273L172.438 274.288Z" fill="#E0B87A"/>
<path d="M127.736 282.282C128.536 283.086 131.138 285.369 131.455 286.348C133.674 293.231 124.263 295.671 121.329 292.144C121.059 291.818 119.919 290.494 119.919 290.494L122.507 288.698C122.507 288.698 124.182 290.603 126.122 290.745C127.58 290.849 128.725 289.459 128.195 288.102C127.391 286.041 124.357 284.008 123.004 282.429C117.766 276.302 126.738 271.073 131.214 276.718L129.122 279.242C128.044 277.829 126.638 276.85 125.337 277.498C124.414 277.956 124.249 279.2 124.973 279.932C125.876 280.84 127.282 281.833 127.731 282.287L127.736 282.282Z" fill="#E0B87A"/>
<path d="M21.4256 274.287V277.644L18.0849 277.677L18.1038 293.704H14.3183V277.677H11.0297L11.0107 274.269L21.4256 274.287Z" fill="#E0B87A"/>
<path d="M117.473 274.32H113.688V293.704H117.473V274.32Z" fill="#E0B87A"/>
<path d="M139.24 274.288H135.454V293.704H139.24V274.288Z" fill="#E0B87A"/>
<path d="M65.4222 274.32L65.408 293.728L61.6367 293.704V274.32H65.4222Z" fill="#E0B87A"/>
</svg>
