<svg width="474" height="107" viewBox="0 0 474 107" fill="none" xmlns="http://www.w3.org/2000/svg">
<path d="M465.827 18.1226V78.5846C465.827 82.0085 467.497 82.4261 471.923 82.6766V83.5117H452.215V82.6766C456.641 82.4261 458.311 82.0085 458.311 78.5846V25.388L452.549 22.6322V22.2981L465.493 18.1226H465.827Z" fill="#E0B87A"/>
<path d="M441.386 32.737C438.463 32.737 436.125 30.3152 436.125 27.3923C436.125 24.4694 438.463 22.0476 441.386 22.0476C444.392 22.0476 446.731 24.4694 446.731 27.3923C446.731 30.3152 444.392 32.737 441.386 32.737ZM445.561 39.2509V78.5846C445.561 82.0086 447.232 82.4261 451.658 82.6767V83.5118H431.949V82.6767C436.375 82.4261 438.046 82.0086 438.046 78.5846V46.5164L432.283 43.7605V43.4264L445.227 39.2509H445.561Z" fill="#E0B87A"/>
<path d="M413.272 84.347C407.844 84.347 402.499 82.6767 399.409 80.2549L398.908 68.3963H399.576C401.414 76.831 406.925 83.0943 413.773 83.0943C418.7 83.0943 422.792 79.9209 422.792 74.2421C422.792 62.6341 400.161 66.3921 400.161 51.6941C400.161 44.0111 406.675 39.251 414.525 39.251C419.201 39.251 422.959 40.5872 426.383 42.7584V53.1973H425.715C424.797 46.767 420.538 40.4201 414.107 40.4201C409.18 40.4201 406.007 43.6771 406.007 48.2702C406.007 60.5463 428.972 56.0367 428.972 71.1522C428.972 79.1693 422.458 84.347 413.272 84.347Z" fill="#E0B87A"/>
<path d="M390.542 52.1117V75.3278C390.542 78.5847 392.045 80.0044 394.551 80.0044C395.72 80.0044 396.889 79.7539 397.975 79.1693L398.058 79.5033C396.054 82.5097 393.215 84.1799 390.041 84.1799C385.949 84.1799 383.444 81.2571 383.026 76.831C380.103 80.2549 375.51 84.1799 369.664 84.1799C363.568 84.1799 359.059 80.0044 359.059 73.9916C359.059 67.7283 364.236 64.2208 371.084 61.799L382.943 57.5399V51.1931C382.943 45.0132 380.771 40.5872 375.26 40.5872C370.5 40.5872 368.328 44.0946 368.328 48.9383C368.328 50.4415 368.495 52.0282 369.08 53.5314L364.654 54.1995C362.817 53.6984 361.397 51.7776 361.397 49.4393C361.397 43.2595 368.495 39.251 376.596 39.251C385.866 39.251 390.542 43.343 390.542 52.1117ZM374.007 79.8374C377.013 79.8374 380.103 78.9187 382.943 76.1629V58.6256L372.921 62.7176C368.746 64.4713 366.157 67.1437 366.157 71.8203C366.157 76.5804 369.247 79.8374 374.007 79.8374Z" fill="#E0B87A"/>
<path d="M308.528 83.5115V82.6764C314.708 82.0918 315.877 81.5072 315.877 76.7471V31.6511C315.877 26.891 314.708 26.3064 308.528 25.7218V24.8867H330.575C343.686 24.8867 351.035 29.5633 351.035 38.499C351.035 47.5182 342.183 52.0278 334.584 52.9464C345.19 53.364 354.459 58.8757 354.459 67.6444C354.459 76.9976 346.442 83.5115 333.164 83.5115H308.528ZM329.49 26.3899H323.727V52.4454H329.49C338.592 52.4454 343.102 47.9358 343.102 39.1671C343.102 31.15 338.175 26.3899 329.49 26.3899ZM330.826 53.9486H323.727V76.246C323.727 80.9226 326.149 82.0083 331.911 82.0083H332.914C342.183 82.0083 346.275 75.745 346.275 67.4774C346.275 59.6273 341.682 53.9486 330.826 53.9486Z" fill="#E0B87A"/>
<path d="M193.36 78.5847V53.6149C193.36 46.8505 190.855 44.0946 185.593 44.0946C181.668 44.0946 177.409 45.7648 174.403 48.1867V78.5847C174.403 82.0087 176.073 82.4262 180.499 82.6767V83.5119H160.791V82.6767C165.217 82.4262 166.887 82.0087 166.887 78.5847V46.5164L161.125 43.7606V43.4265L174.403 39.251H174.737L174.403 47.5186C177.827 43.6771 183.171 39.251 189.602 39.251C197.285 39.251 200.876 43.8441 200.876 52.6963V78.5847C200.876 82.0087 202.546 82.4262 206.972 82.6767V83.5119H187.264V82.6767C191.69 82.4262 193.36 82.0087 193.36 78.5847Z" fill="#E0B87A"/>
<path d="M159.628 71.4863C157.624 78.7517 151.527 84.347 143.093 84.347C131.401 84.347 124.47 74.7432 124.47 63.0516C124.47 49.6063 132.821 39.251 143.51 39.251C153.532 39.251 158.96 46.4329 158.96 55.7862V56.4543H131.234C131.151 57.0388 131.151 57.7069 131.151 58.375C131.151 71.0687 137.33 78.7517 146.183 78.7517C152.028 78.7517 156.454 75.9958 159.294 71.3192L159.628 71.4863ZM142.592 40.5872C136.412 40.5872 132.236 47.1845 131.318 55.1181H151.694C151.694 47.1845 149.105 40.5872 142.592 40.5872Z" fill="#E0B87A"/>
<path d="M121.824 71.4863C119.82 78.7517 113.724 84.347 105.289 84.347C93.5974 84.347 86.666 74.7432 86.666 63.0516C86.666 49.6063 95.0171 39.251 105.707 39.251C115.728 39.251 121.156 46.4329 121.156 55.7862V56.4543H93.4304C93.3469 57.0388 93.3469 57.7069 93.3469 58.375C93.3469 71.0687 99.5267 78.7517 108.379 78.7517C114.225 78.7517 118.651 75.9958 121.49 71.3192L121.824 71.4863ZM104.788 40.5872C98.6081 40.5872 94.4325 47.1845 93.5139 55.1181H113.891C113.891 47.1845 111.302 40.5872 104.788 40.5872Z" fill="#E0B87A"/>
<path d="M71.6748 51.2766C75.5163 43.4265 78.2722 39.251 82.9488 39.251C84.452 39.251 85.6212 39.8356 86.1222 40.3366V46.8505H84.9531C79.8589 46.8505 75.1823 47.5186 71.6748 51.9447V78.5847C71.6748 82.0087 73.6791 82.1757 79.5248 82.6767V83.5119H58.0625V82.6767C62.4886 82.4262 64.1588 82.0087 64.1588 78.5847V46.5164L58.3965 43.7606V43.4265L71.6748 39.251H72.0089L71.6748 51.2766Z" fill="#E0B87A"/>
<path d="M42.6742 63.0512C42.6742 58.2911 41.505 57.7065 35.3252 57.1219V56.2868H57.5391V57.1219C51.3593 57.7065 50.1902 58.2911 50.1902 63.0512V78.3337C45.0125 81.8412 38.3316 84.3465 31.3167 84.3465C14.2804 84.3465 2.75586 71.4023 2.75586 55.4517C2.75586 36.8287 15.5331 24.0515 32.3188 24.0515C38.8326 24.0515 44.6784 25.9723 49.1045 28.8952V41.2548H48.3529C46.6827 31.484 40.1688 25.2207 31.6507 25.2207C18.2889 25.2207 11.274 38.0814 11.274 53.1134C11.274 68.897 17.7879 83.0938 31.3167 83.0938C35.4922 83.0938 39.6678 82.1752 42.6742 79.3358V63.0512Z" fill="#E0B87A"/>
<path d="M239.72 12.7229L0 13.0491V11.0918H242.704L239.72 12.7229Z" fill="#E0B87A"/>
<path d="M241.009 96.2337L0 95.9075V97.8647H244.009L241.009 96.2337Z" fill="#E0B87A"/>
<path d="M276.467 12.7229L473.012 13.0491V11.0918H274.02L276.467 12.7229Z" fill="#E0B87A"/>
<path d="M275.823 96.2337L473.012 95.9075V97.8647H273.368L275.823 96.2337Z" fill="#E0B87A"/>
<path fill-rule="evenodd" clip-rule="evenodd" d="M270.905 14.9116L270.919 14.8943L258.33 0.164666L246.031 15.1378L246.055 15.1654C243.361 18.11 241.739 22.0063 241.781 26.2651C241.823 30.5616 243.551 34.4562 246.345 37.3557L258.837 51.9718L270.91 37.2727C273.736 34.3018 275.448 30.3101 275.405 25.936C275.363 21.6721 273.661 17.8041 270.905 14.9116ZM258.814 49.6712L269.802 36.2934L269.839 36.2544C272.414 33.547 273.966 29.9206 273.927 25.9505C273.889 22.0801 272.346 18.5663 269.835 15.931L268.933 14.9843L268.991 14.9132L258.352 2.4653L247.959 15.119L248.027 15.1986L247.145 16.1627C244.691 18.8455 243.221 22.3849 243.259 26.2506C243.297 30.1506 244.863 33.6885 247.409 36.3305L247.439 36.3622L258.814 49.6712Z" fill="#E0B87A"/>
<path fill-rule="evenodd" clip-rule="evenodd" d="M270.91 37.2727C273.736 34.3018 275.448 30.3101 275.405 25.936C275.363 21.6721 273.661 17.8041 270.905 14.9116L270.919 14.8943L258.33 0.164666L246.031 15.1378L246.055 15.1654C243.361 18.11 241.739 22.0063 241.781 26.2651C241.823 30.5616 243.551 34.4562 246.345 37.3557L258.837 51.9718L270.91 37.2727ZM258.827 50.956L270.421 36.8403L270.437 36.8231C273.152 33.9685 274.793 30.1381 274.752 25.9424C274.712 21.8522 273.081 18.1406 270.432 15.3617L270.034 14.9437L270.068 14.9026L258.34 1.18048L246.882 15.1295L246.926 15.18L246.536 15.6057C243.948 18.4347 242.394 22.1735 242.434 26.2587C242.474 30.3801 244.13 34.1173 246.814 36.903L246.828 36.9171L258.827 50.956ZM258.824 50.687L246.956 36.8009L246.939 36.7832C246.939 36.7832 246.939 36.7832 246.939 36.7832C244.284 34.0275 242.646 30.332 242.606 26.257C242.567 22.2178 244.104 18.5208 246.664 15.7223L247.156 15.1839L247.108 15.1273L258.342 1.44949L269.842 14.9048L269.803 14.9522L270.307 15.4809C272.927 18.2298 274.54 21.9 274.58 25.9441C274.62 30.0925 272.998 33.8802 270.312 36.704L270.291 36.7258L258.824 50.687ZM269.802 36.2934L269.839 36.2544C272.414 33.547 273.966 29.9206 273.927 25.9505C273.889 22.0801 272.346 18.5663 269.835 15.931L268.933 14.9843L268.991 14.9132L258.352 2.4653L247.959 15.119L248.027 15.1986L247.145 16.1627C244.691 18.8455 243.221 22.3849 243.259 26.2506C243.297 30.1506 244.863 33.6886 247.409 36.3305L247.439 36.3622L258.814 49.6712L269.802 36.2934Z" fill="#E0B87A"/>
<path d="M257.565 1.42236L259.043 1.4079L259.526 50.7359L258.048 50.7503L257.565 1.42236Z" fill="#E0B87A"/>
<path fill-rule="evenodd" clip-rule="evenodd" d="M258.397 2.06669L258.224 2.06838L258.694 50.0916L258.867 50.0899L258.397 2.06669ZM257.565 1.42236L258.048 50.7503L259.526 50.7359L259.043 1.4079L257.565 1.42236Z" fill="#E0B87A"/>
<path d="M273.66 21.7305L274.715 22.765L259.427 38.3555L258.372 37.3209L273.66 21.7305Z" fill="#E0B87A"/>
<path fill-rule="evenodd" clip-rule="evenodd" d="M273.793 22.7741L273.669 22.6531L259.295 37.3119L259.418 37.4329L273.793 22.7741ZM273.66 21.7305L258.372 37.3209L259.427 38.3555L274.715 22.765L273.66 21.7305Z" fill="#E0B87A"/>
<path d="M242.188 22.9492L243.223 21.8942L258.949 37.3153L257.914 38.3703L242.188 22.9492Z" fill="#E0B87A"/>
<path fill-rule="evenodd" clip-rule="evenodd" d="M243.232 22.8168L243.111 22.9402L257.905 37.4477L258.026 37.3243L243.232 22.8168ZM242.188 22.9492L257.914 38.3703L258.949 37.3153L243.223 21.8942L242.188 22.9492Z" fill="#E0B87A"/>
<path d="M269.185 14.0117L270.24 15.0463L259.307 26.1946L258.252 25.16L269.185 14.0117Z" fill="#E0B87A"/>
<path fill-rule="evenodd" clip-rule="evenodd" d="M269.317 15.0553L269.194 14.9344L259.175 25.151L259.298 25.272L269.317 15.0553ZM269.185 14.0117L258.252 25.16L259.307 26.1946L270.24 15.0463L269.185 14.0117Z" fill="#E0B87A"/>
<path d="M246.342 14.9775L247.376 13.9225L258.83 25.1541L257.795 26.2091L246.342 14.9775Z" fill="#E0B87A"/>
<path fill-rule="evenodd" clip-rule="evenodd" d="M247.385 14.8451L247.264 14.9685L257.786 25.2865L257.907 25.1631L247.385 14.8451ZM246.342 14.9775L257.795 26.2091L258.83 25.1541L247.376 13.9225L246.342 14.9775Z" fill="#E0B87A"/>
<path d="M264.11 7.5918L265.165 8.62637L259.195 14.7146L258.14 13.68L264.11 7.5918Z" fill="#E0B87A"/>
<path fill-rule="evenodd" clip-rule="evenodd" d="M264.243 8.6354L264.119 8.51443L259.063 13.671L259.186 13.792L264.243 8.6354ZM264.11 7.5918L258.14 13.68L259.195 14.7146L265.165 8.62637L264.11 7.5918Z" fill="#E0B87A"/>
<path d="M251.515 8.68237L252.549 7.62735L258.716 13.6749L257.682 14.7299L251.515 8.68237Z" fill="#E0B87A"/>
<path fill-rule="evenodd" clip-rule="evenodd" d="M252.558 8.54998L252.437 8.67334L257.673 13.8073L257.794 13.6839L252.558 8.54998ZM251.515 8.68237L257.682 14.7299L258.716 13.6749L252.549 7.62735L251.515 8.68237Z" fill="#E0B87A"/>
<path fill-rule="evenodd" clip-rule="evenodd" d="M271.453 69.6227L271.467 69.6053L258.8 54.9421L246.581 69.9797L246.604 70.0071C243.926 72.9658 242.325 76.8706 242.389 81.1291C242.454 85.4254 244.202 89.3108 247.011 92.1956L259.58 106.746L271.575 91.9835C274.385 88.9978 276.076 84.9971 276.011 80.6234C275.946 76.3597 274.224 72.5007 271.453 69.6227ZM259.545 104.445L270.463 91.01L270.499 90.9709C273.06 88.25 274.593 84.6154 274.533 80.6456C274.475 76.7754 272.914 73.2698 270.388 70.6477L269.481 69.7058L269.539 69.6344L258.835 57.2426L248.508 69.9507L248.577 70.03L247.7 70.9987C245.26 73.6943 243.808 77.2414 243.867 81.1069C243.925 85.0066 245.51 88.5363 248.07 91.1648L248.1 91.1964L259.545 104.445Z" fill="#E0B87A"/>
<path fill-rule="evenodd" clip-rule="evenodd" d="M271.575 91.9835C274.385 88.9978 276.076 84.9971 276.011 80.6234C275.946 76.3597 274.224 72.5007 271.453 69.6227L271.467 69.6053L258.8 54.9421L246.581 69.9797L246.604 70.0071C243.926 72.9658 242.325 76.8706 242.389 81.1291C242.454 85.4254 244.202 89.3108 247.011 92.1956L259.58 106.746L271.575 91.9835ZM259.564 105.73L271.084 91.5537L271.1 91.5364C273.8 88.6676 275.421 84.8286 275.358 80.6332C275.297 76.5433 273.646 72.8403 270.983 70.0753L270.582 69.6594L270.616 69.6182L258.816 55.9578L247.432 69.9669L247.475 70.0172L247.088 70.4449C244.515 73.2875 242.98 77.0343 243.041 81.1193C243.103 85.2405 244.779 88.9688 247.478 91.7405L247.492 91.7544L259.564 105.73ZM259.56 105.461L247.619 91.6376L247.602 91.6199C247.602 91.6199 247.602 91.6199 247.602 91.6199C244.932 88.8782 243.276 85.1914 243.214 81.1167C243.153 77.0777 244.671 73.3727 247.216 70.5609L247.706 70.0199L247.657 69.9635L258.82 56.2268L270.39 69.6216L270.352 69.6691L270.858 70.1951C273.492 72.9302 275.125 76.5919 275.185 80.6358C275.248 84.7839 273.645 88.5801 270.975 91.418L270.954 91.4399L259.56 105.461ZM270.463 91.01L270.499 90.9709C273.06 88.25 274.593 84.6154 274.533 80.6456C274.475 76.7754 272.914 73.2698 270.388 70.6477L269.481 69.7058L269.539 69.6344L258.835 57.2426L248.508 69.9507L248.577 70.03L247.7 70.9987C245.26 73.6943 243.808 77.2414 243.867 81.1069C243.925 85.0066 245.51 88.5363 248.07 91.1648L248.1 91.1964L259.545 104.445L270.463 91.01Z" fill="#E0B87A"/>
<path d="M258.042 56.2043L259.519 56.1821L260.261 105.507L258.784 105.529L258.042 56.2043Z" fill="#E0B87A"/>
<path fill-rule="evenodd" clip-rule="evenodd" d="M258.877 56.8443L258.704 56.8469L259.427 104.867L259.599 104.864L258.877 56.8443ZM258.042 56.2043L258.784 105.529L260.261 105.507L259.519 56.1821L258.042 56.2043Z" fill="#E0B87A"/>
<path d="M274.243 76.4277L275.304 77.4567L260.097 93.1273L259.037 92.0983L274.243 76.4277Z" fill="#E0B87A"/>
<path fill-rule="evenodd" clip-rule="evenodd" d="M274.381 77.4706L274.257 77.3503L259.96 92.0844L260.084 92.2048L274.381 77.4706ZM274.243 76.4277L259.037 92.0983L260.097 93.1273L275.304 77.4567L274.243 76.4277Z" fill="#E0B87A"/>
<path d="M242.777 77.8113L243.806 76.7508L259.613 92.0891L258.584 93.1495L242.777 77.8113Z" fill="#E0B87A"/>
<path fill-rule="evenodd" clip-rule="evenodd" d="M243.82 77.6734L243.7 77.7974L258.57 92.2269L258.691 92.1029L243.82 77.6734ZM242.777 77.8113L258.584 93.1495L259.613 92.0891L243.806 76.7508L242.777 77.8113Z" fill="#E0B87A"/>
<path d="M269.728 68.7317L270.788 69.7607L259.914 80.9663L258.854 79.9373L269.728 68.7317Z" fill="#E0B87A"/>
<path fill-rule="evenodd" clip-rule="evenodd" d="M269.865 69.7746L269.741 69.6543L259.777 79.9234L259.901 80.0438L269.865 69.7746ZM269.728 68.7317L258.854 79.9373L259.914 80.9663L270.788 69.7607L269.728 68.7317Z" fill="#E0B87A"/>
<path d="M246.89 69.8181L247.919 68.7577L259.431 79.9289L258.402 80.9893L246.89 69.8181Z" fill="#E0B87A"/>
<path fill-rule="evenodd" clip-rule="evenodd" d="M247.933 69.6802L247.812 69.8042L258.388 80.0668L258.509 79.9428L247.933 69.6802ZM246.89 69.8181L258.402 80.9893L259.431 79.9289L247.919 68.7577L246.89 69.8181Z" fill="#E0B87A"/>
<path d="M264.619 62.3386L265.68 63.3676L259.741 69.4872L258.681 68.4581L264.619 62.3386Z" fill="#E0B87A"/>
<path fill-rule="evenodd" clip-rule="evenodd" d="M264.757 63.3815L264.633 63.2612L259.604 68.4443L259.728 68.5646L264.757 63.3815ZM264.619 62.3386L258.681 68.4581L259.741 69.4872L265.68 63.3676L264.619 62.3386Z" fill="#E0B87A"/>
<path d="M252.03 63.4951L253.059 62.4347L259.258 68.4497L258.229 69.5102L252.03 63.4951Z" fill="#E0B87A"/>
<path fill-rule="evenodd" clip-rule="evenodd" d="M253.073 63.3572L252.953 63.4812L258.215 68.5876L258.335 68.4636L253.073 63.3572ZM252.03 63.4951L258.229 69.5102L259.258 68.4497L253.059 62.4347L252.03 63.4951Z" fill="#E0B87A"/>
<path fill-rule="evenodd" clip-rule="evenodd" d="M274.36 66.1715L274.343 66.1856L259.631 53.5761L274.621 41.2984L274.648 41.322C277.597 38.6325 281.495 37.0162 285.754 37.0638C290.05 37.1118 293.943 38.8448 296.838 41.6427L311.437 54.1551L296.721 66.2079C293.746 69.0294 289.752 70.7357 285.378 70.6869C281.114 70.6392 277.249 68.9321 274.36 66.1715ZM309.136 54.1294L295.743 65.0988L295.704 65.1358C292.993 67.707 289.365 69.2537 285.395 69.2093C281.524 69.1661 278.013 67.6184 275.381 65.1032L274.435 64.1997L274.364 64.258L261.931 53.6018L274.599 43.2261L274.679 43.2942L275.644 42.4137C278.33 39.9634 281.872 38.4981 285.737 38.5413C289.637 38.5849 293.173 40.156 295.812 42.7053L295.843 42.7359L309.136 54.1294Z" fill="#E0B87A"/>
<path fill-rule="evenodd" clip-rule="evenodd" d="M296.721 66.2079C293.746 69.0294 289.752 70.7357 285.378 70.6869C281.114 70.6392 277.249 68.9321 274.36 66.1715L274.343 66.1856L259.631 53.5761L274.621 41.2984L274.648 41.322C277.597 38.6325 281.495 37.0162 285.754 37.0638C290.05 37.1118 293.943 38.8448 296.838 41.6427L311.437 54.1551L296.721 66.2079ZM310.421 54.1437L296.289 65.7182L296.272 65.7346C293.414 68.4455 289.581 70.0814 285.385 70.0345C281.295 69.9888 277.586 68.352 274.811 65.6998L274.393 65.3009L274.352 65.3345L260.646 53.5874L274.611 42.1496L274.662 42.1928L275.088 41.804C277.921 39.2201 281.662 37.6705 285.747 37.7162C289.868 37.7622 293.603 39.4237 296.385 42.1119L296.399 42.1254L310.421 54.1437ZM310.152 54.1407L296.283 42.2532L296.265 42.2361C296.265 42.2361 296.265 42.2361 296.265 42.2361C293.513 39.577 289.82 37.9345 285.745 37.8889C281.706 37.8438 278.006 39.3757 275.204 41.9317L274.665 42.4234L274.609 42.375L260.915 53.5904L274.355 65.1091L274.402 65.0703L274.93 65.5749C277.675 68.1984 281.343 69.8165 285.387 69.8617C289.536 69.9081 293.326 68.2909 296.153 65.6092L296.175 65.5885L310.152 54.1407ZM295.743 65.0988L295.704 65.1358C292.993 67.707 289.365 69.2537 285.395 69.2093C281.524 69.1661 278.013 67.6184 275.381 65.1032L274.435 64.1997L274.364 64.258L261.931 53.6018L274.599 43.2261L274.679 43.2942L275.644 42.4137C278.33 39.9634 281.872 38.4981 285.737 38.5413C289.637 38.5849 293.173 40.156 295.812 42.7053L295.843 42.7359L309.136 54.1294L295.743 65.0988Z" fill="#E0B87A"/>
<path d="M260.89 52.8135L260.873 54.291L310.2 54.8423L310.217 53.3648L260.89 52.8135Z" fill="#E0B87A"/>
<path fill-rule="evenodd" clip-rule="evenodd" d="M261.533 53.6459L261.535 53.4732L309.557 54.0099L309.555 54.1826L261.533 53.6459ZM260.89 52.8135L310.217 53.3648L310.2 54.8423L260.873 54.291L260.89 52.8135Z" fill="#E0B87A"/>
<path d="M281.176 68.936L282.209 69.9925L297.821 54.7259L296.787 53.6695L281.176 68.936Z" fill="#E0B87A"/>
<path fill-rule="evenodd" clip-rule="evenodd" d="M282.219 69.0699L282.098 68.9463L296.777 54.5921L296.898 54.7156L282.219 69.0699ZM281.176 68.936L296.787 53.6695L297.821 54.7259L282.209 69.9925L281.176 68.936Z" fill="#E0B87A"/>
<path d="M282.438 37.4658L281.381 38.4989L296.78 54.2462L297.837 53.2131L282.438 37.4658Z" fill="#E0B87A"/>
<path fill-rule="evenodd" clip-rule="evenodd" d="M282.304 38.5092L282.427 38.3884L296.914 53.2028L296.791 53.3236L282.304 38.5092ZM282.438 37.4658L297.837 53.2131L296.78 54.2462L281.381 38.4989L282.438 37.4658Z" fill="#E0B87A"/>
<path d="M273.462 64.4502L274.495 65.5067L285.659 54.5899L284.625 53.5335L273.462 64.4502Z" fill="#E0B87A"/>
<path fill-rule="evenodd" clip-rule="evenodd" d="M274.505 64.584L274.385 64.4605L284.615 54.4561L284.736 54.5796L274.505 64.584ZM273.462 64.4502L284.625 53.5335L285.659 54.5899L274.495 65.5067L273.462 64.4502Z" fill="#E0B87A"/>
<path d="M274.46 41.6079L273.404 42.641L284.619 54.1102L285.676 53.0771L274.46 41.6079Z" fill="#E0B87A"/>
<path fill-rule="evenodd" clip-rule="evenodd" d="M274.326 42.6513L274.45 42.5305L284.753 53.0668L284.629 53.1876L274.326 42.6513ZM274.46 41.6079L285.676 53.0771L284.619 54.1102L273.404 42.641L274.46 41.6079Z" fill="#E0B87A"/>
<path d="M267.05 59.3669L268.083 60.4234L274.179 54.4616L273.146 53.4052L267.05 59.3669Z" fill="#E0B87A"/>
<path fill-rule="evenodd" clip-rule="evenodd" d="M268.093 59.5008L267.972 59.3773L273.136 54.3278L273.257 54.4513L268.093 59.5008ZM267.05 59.3669L273.146 53.4052L274.179 54.4616L268.083 60.4234L267.05 59.3669Z" fill="#E0B87A"/>
<path d="M268.157 46.7739L267.101 47.807L273.14 53.9825L274.196 52.9494L268.157 46.7739Z" fill="#E0B87A"/>
<path fill-rule="evenodd" clip-rule="evenodd" d="M268.023 47.8173L268.147 47.6965L273.274 52.9391L273.15 53.0599L268.023 47.8173ZM268.157 46.7739L274.196 52.9494L273.14 53.9825L267.101 47.807L268.157 46.7739Z" fill="#E0B87A"/>
<path fill-rule="evenodd" clip-rule="evenodd" d="M221.037 41.1667L221.02 41.1523L206.168 53.5967L221.02 66.0411L221.048 66.0178C223.966 68.7401 227.846 70.3999 232.105 70.3999C236.402 70.3999 240.313 68.7105 243.24 65.9452L257.978 53.5967L243.397 41.3801C240.454 38.5256 236.479 36.7747 232.105 36.7747C227.841 36.7747 223.957 38.4386 221.037 41.1667ZM255.677 53.5967L242.407 42.4782L242.369 42.4408C239.687 39.8395 236.075 38.2524 232.105 38.2524C228.235 38.2524 224.706 39.7607 222.046 42.2463L221.091 43.1392L221.02 43.0801L208.469 53.5967L221.02 64.1133L221.1 64.0461L222.056 64.9374C224.714 67.4176 228.239 68.9223 232.105 68.9223C236.005 68.9223 239.558 67.3908 242.225 64.8711L242.257 64.8409L255.677 53.5967Z" fill="#E0B87A"/>
<path fill-rule="evenodd" clip-rule="evenodd" d="M243.397 41.3801C240.454 38.5256 236.479 36.7747 232.105 36.7747C227.841 36.7747 223.957 38.4386 221.037 41.1667L221.02 41.1523L206.168 53.5967L221.02 66.0411L221.048 66.0178C223.966 68.7401 227.846 70.3999 232.105 70.3999C236.402 70.3999 240.313 68.7105 243.24 65.9452L257.978 53.5967L243.397 41.3801ZM256.962 53.5967L242.96 41.865L242.943 41.8485C240.115 39.1057 236.301 37.4272 232.105 37.4272C228.015 37.4272 224.287 39.0223 221.483 41.6434L221.061 42.0376L221.02 42.0035L207.184 53.5967L221.02 65.1899L221.071 65.1472L221.493 65.5408C224.296 68.1561 228.02 69.7475 232.105 69.7475C236.227 69.7475 239.98 68.1278 242.792 65.4709L242.806 65.4576L256.962 53.5967ZM256.693 53.5967L242.691 65.3285L242.673 65.3454C242.673 65.3454 242.673 65.3453 242.673 65.3454C239.892 67.9735 236.18 69.5747 232.105 69.5747C228.066 69.5747 224.384 68.0015 221.611 65.4144L221.077 64.9167L221.02 64.9645L207.453 53.5967L221.02 42.2289L221.067 42.2682L221.601 41.7696C224.375 39.1769 228.061 37.5999 232.105 37.5999C236.254 37.5999 240.025 39.2593 242.823 41.9725L242.844 41.9934L256.693 53.5967ZM242.407 42.4782L242.369 42.4408C239.687 39.8395 236.075 38.2524 232.105 38.2524C228.235 38.2524 224.706 39.7607 222.046 42.2463L221.091 43.1392L221.02 43.0801L208.469 53.5967L221.02 64.1133L221.1 64.0461L222.056 64.9374C224.714 67.4176 228.239 68.9223 232.105 68.9223C236.005 68.9223 239.558 67.3908 242.225 64.8711L242.257 64.8409L255.677 53.5967L242.407 42.4782Z" fill="#E0B87A"/>
<path d="M207.418 54.3723V52.8947L256.748 52.8947V54.3723L207.418 54.3723Z" fill="#E0B87A"/>
<path fill-rule="evenodd" clip-rule="evenodd" d="M208.07 53.5471V53.7199L256.096 53.7199V53.5471L208.07 53.5471ZM207.418 54.3723L256.748 54.3723V52.8947L207.418 52.8947V54.3723Z" fill="#E0B87A"/>
<path d="M227.883 38.4773L228.928 37.4324L244.368 52.8725L243.323 53.9174L227.883 38.4773Z" fill="#E0B87A"/>
<path fill-rule="evenodd" clip-rule="evenodd" d="M228.928 38.3551L228.805 38.4773L243.323 52.9947L243.445 52.8725L228.928 38.3551ZM227.883 38.4773L243.323 53.9174L244.368 52.8725L228.928 37.4324L227.883 38.4773Z" fill="#E0B87A"/>
<path d="M228.793 69.9602L227.749 68.9154L243.323 53.3411L244.368 54.386L228.793 69.9602Z" fill="#E0B87A"/>
<path fill-rule="evenodd" clip-rule="evenodd" d="M228.671 68.9154L228.793 69.0375L243.445 54.386L243.323 54.2638L228.671 68.9154ZM228.793 69.9602L244.368 54.386L243.323 53.3411L227.749 68.9154L228.793 69.9602Z" fill="#E0B87A"/>
<path d="M220.12 42.8772L221.165 41.8324L232.206 52.8732L231.161 53.918L220.12 42.8772Z" fill="#E0B87A"/>
<path fill-rule="evenodd" clip-rule="evenodd" d="M221.165 42.755L221.043 42.8772L231.161 52.9953L231.283 52.8732L221.165 42.755ZM220.12 42.8772L231.161 53.918L232.206 52.8732L221.165 41.8324L220.12 42.8772Z" fill="#E0B87A"/>
<path d="M220.863 65.7288L219.818 64.6839L231.161 53.3408L232.206 54.3857L220.863 65.7288Z" fill="#E0B87A"/>
<path fill-rule="evenodd" clip-rule="evenodd" d="M220.741 64.6839L220.863 64.8061L231.283 54.3857L231.161 54.2635L220.741 64.6839ZM220.863 65.7288L232.206 54.3857L231.161 53.3408L219.818 64.6839L220.863 65.7288Z" fill="#E0B87A"/>
<path d="M213.651 47.8884L214.696 46.8436L220.725 52.8731L219.68 53.9179L213.651 47.8884Z" fill="#E0B87A"/>
<path fill-rule="evenodd" clip-rule="evenodd" d="M214.696 47.7663L214.574 47.8884L219.68 52.9953L219.803 52.8731L214.696 47.7663ZM213.651 47.8884L219.68 53.9179L220.725 52.8731L214.696 46.8436L213.651 47.8884Z" fill="#E0B87A"/>
<path d="M214.618 60.4934L213.573 59.4486L219.681 53.341L220.726 54.3858L214.618 60.4934Z" fill="#E0B87A"/>
<path fill-rule="evenodd" clip-rule="evenodd" d="M214.496 59.4486L214.618 59.5707L219.803 54.3858L219.681 54.2636L214.496 59.4486ZM214.618 60.4934L220.726 54.3858L219.681 53.341L213.573 59.4486L214.618 60.4934Z" fill="#E0B87A"/>
</svg>
