<svg width="197" height="194" viewBox="0 0 197 194" fill="none" xmlns="http://www.w3.org/2000/svg">
<rect width="197" height="194" rx="97" fill="#E8E3DA"/>
<path d="M101.051 32C101.051 55.4694 91.6864 72.728 76.3167 89.5788L76.2812 89.6173L76.2451 89.6546C62.2039 103.971 57.853 119.243 57.7415 131.915C57.6286 144.745 61.8557 154.787 64.7365 158.483L60.2062 162C56.3917 157.105 51.8803 145.738 52.0024 131.864C52.1258 117.846 56.9742 101.137 72.0996 85.6924C86.8313 69.533 95.3116 53.5944 95.3116 32H101.051Z" fill="#355128"/>
<path d="M95.9493 32C95.9493 55.4694 105.314 72.728 120.683 89.5788L120.719 89.6173L120.755 89.6546C134.796 103.971 139.147 119.243 139.259 131.915C139.371 144.745 135.144 154.787 132.263 158.483L136.794 162C140.608 157.105 145.12 145.738 144.998 131.864C144.874 117.846 140.026 101.137 124.9 85.6924C110.169 69.533 101.688 53.5944 101.688 32H95.9493Z" fill="#355128"/>
<path d="M102.641 102.245C90.0503 113.333 85.5013 123.639 84.6335 131.784C83.7588 139.995 86.5851 146.311 89.2404 149.5L84.8259 153.161C81.2109 148.819 77.8833 140.974 78.9269 131.179C79.9774 121.318 85.419 109.773 98.8447 97.9502L102.641 102.245Z" fill="#355128"/>
<path d="M95.008 102.245C107.599 113.333 112.148 123.639 113.016 131.784C113.891 139.995 111.064 146.311 108.409 149.5L112.823 153.161C116.439 148.819 119.766 140.974 118.723 131.179C117.672 121.318 112.23 109.773 98.8047 97.9502L95.008 102.245Z" fill="#355128"/>
</svg>
