<svg width="15" height="21" viewBox="0 0 15 21" fill="none" xmlns="http://www.w3.org/2000/svg">
<path d="M7.9114 0C7.9114 3.79121 6.40103 6.57914 3.92205 9.30118L3.91632 9.30741L3.9105 9.31343C1.64579 11.6261 0.944028 14.0931 0.92604 16.1401C0.907834 18.2126 1.58962 19.8348 2.05428 20.4319L1.32358 21C0.708338 20.2093 -0.019299 18.3731 0.000391073 16.1319C0.0202907 13.8674 0.802286 11.1683 3.24187 8.67339C5.61795 6.06302 6.98575 3.48832 6.98575 0H7.9114Z" fill="#6C1111"/>
<path d="M7.0886 0C7.0886 3.79121 8.59897 6.57914 11.078 9.30118L11.0837 9.30741L11.0895 9.31343C13.3542 11.6261 14.056 14.0931 14.074 16.1401C14.0922 18.2126 13.4104 19.8348 12.9457 20.4319L13.6764 21C14.2917 20.2093 15.0193 18.3731 14.9996 16.1319C14.9797 13.8674 14.1977 11.1683 11.7581 8.67339C9.38205 6.06302 8.01425 3.48832 8.01425 0H7.0886Z" fill="#6C1111"/>
<path d="M8.16782 11.3473C6.13699 13.1385 5.40328 14.8034 5.26331 16.1191C5.12223 17.4454 5.57809 18.4657 6.00636 18.9809L5.29435 19.5722C4.71127 18.8708 4.17458 17.6036 4.34289 16.0213C4.51233 14.4284 5.39001 12.5635 7.55544 10.6536L8.16782 11.3473Z" fill="#6C1111"/>
<path d="M6.93667 11.3473C8.96751 13.1385 9.70121 14.8034 9.84118 16.1191C9.98227 17.4454 9.5264 18.4657 9.09813 18.9809L9.81014 19.5722C10.3932 18.8708 10.9299 17.6036 10.7616 16.0213C10.5922 14.4284 9.71449 12.5635 7.54905 10.6536L6.93667 11.3473Z" fill="#6C1111"/>
</svg>
