<svg width="17" height="23" viewBox="0 0 17 23" fill="none" xmlns="http://www.w3.org/2000/svg">
<path d="M9 1C9 4.79121 7.47272 7.57914 4.96597 10.3012L4.96018 10.3074L4.95429 10.3134C2.66422 12.6261 1.9546 15.0931 1.93641 17.1401C1.918 19.2126 2.60743 20.8348 3.07728 21.4319L2.3384 22C1.71627 21.2093 0.980485 19.3731 1.0004 17.1319C1.02052 14.8674 1.81127 12.1683 4.27818 9.67339C6.68086 7.06302 8.06398 4.48832 8.06398 1H9Z" fill="#EC9C3B" stroke="#EC9C3B" stroke-width="0.5"/>
<path d="M8 1C8 4.79121 9.52728 7.57914 12.034 10.3012L12.0398 10.3074L12.0457 10.3134C14.3358 12.6261 15.0454 15.0931 15.0636 17.1401C15.082 19.2126 14.3926 20.8348 13.9227 21.4319L14.6616 22C15.2837 21.2093 16.0195 19.3731 15.9996 17.1319C15.9795 14.8674 15.1887 12.1683 12.7218 9.67339C10.3191 7.06302 8.93602 4.48832 8.93602 1H8Z" fill="#EC9C3B" stroke="#EC9C3B" stroke-width="0.5"/>
<path d="M8 12.7001C10.1065 14.5076 10.8676 16.1877 11.0127 17.5154C11.1591 18.8538 10.6862 19.8834 10.242 20.4033L10.9806 21C11.5854 20.2922 12.1421 19.0134 11.9675 17.4167C11.7917 15.8093 10.8813 13.9273 8.6352 12L8 12.7001Z" fill="#EC9C3B" stroke="#EC9C3B" stroke-width="0.5"/>
<path d="M9 12.7001C6.89349 14.5076 6.13244 16.1877 5.98726 17.5154C5.84091 18.8538 6.31377 19.8834 6.758 20.4033L6.01945 21C5.41465 20.2922 4.85795 19.0134 5.03253 17.4167C5.20829 15.8093 6.11867 13.9273 8.3648 12L9 12.7001Z" fill="#EC9C3B" stroke="#EC9C3B" stroke-width="0.5"/>
</svg>
