<svg width="154" height="62" viewBox="0 0 154 62" fill="none" xmlns="http://www.w3.org/2000/svg">
<path d="M61.3621 1.29688H152.924V50.5741C152.924 56.0969 148.447 60.5741 142.924 60.5741H71.3621C65.8393 60.5741 61.3621 56.0969 61.3621 50.5741V1.29688Z" fill="#E8E3DA"/>
<path d="M19.3366 6.18164H61.3621M10.7867 18.1816H61.3621M0.253906 30.1816L61.3621 30.1816M10.7867 42.1816H61.3621M19.3366 54.1816H62.0326M112.687 31.3966L107.143 35.5195L101.439 31.2769M112.687 31.3966L151.428 1.29688H62.8651L101.439 31.2769M112.687 31.3966L143.373 60.5027H70.6267L101.439 31.2769M61.3621 1.29688H152.924V50.5741C152.924 56.0969 148.447 60.5741 142.924 60.5741H71.3621C65.8393 60.5741 61.3621 56.0969 61.3621 50.5741V1.29688Z" stroke="#355128" stroke-width="1.5"/>
</svg>
